<?xml version="1.0" encoding="UTF-8" standalone="no"?>
<!-- Created with Inkscape (http://www.inkscape.org/) -->

<svg
   width="150"
   height="100"
   viewBox="0 0 39.6875 26.458333"
   version="1.1"
   id="svg1"
   inkscape:version="1.3.2 (091e20e, 2023-11-25, custom)"
   sodipodi:docname="all_statements.svg"
   xmlns:inkscape="http://www.inkscape.org/namespaces/inkscape"
   xmlns:sodipodi="http://sodipodi.sourceforge.net/DTD/sodipodi-0.dtd"
   xmlns="http://www.w3.org/2000/svg"
   xmlns:svg="http://www.w3.org/2000/svg">
  <sodipodi:namedview
     id="namedview1"
     pagecolor="#ffffff"
     bordercolor="#000000"
     borderopacity="0.25"
     inkscape:showpageshadow="2"
     inkscape:pageopacity="0.0"
     inkscape:pagecheckerboard="0"
     inkscape:deskcolor="#d1d1d1"
     inkscape:document-units="mm"
     inkscape:zoom="7.6810309"
     inkscape:cx="36.323249"
     inkscape:cy="49.667812"
     inkscape:window-width="2400"
     inkscape:window-height="1271"
     inkscape:window-x="2391"
     inkscape:window-y="230"
     inkscape:window-maximized="1"
     inkscape:current-layer="layer1" />
  <defs
     id="defs1" />
  <g
     inkscape:label="Layer 1"
     inkscape:groupmode="layer"
     id="layer1">
    <path
       id="rect1"
       style="color:#000000;fill:#ffffff;stroke-linecap:round;stroke-linejoin:round;-inkscape-stroke:none;paint-order:stroke fill markers;fill-opacity:1"
       d="M 20.400305 1.4335042 C 20.142176 1.4335042 19.925916 1.6502829 19.925916 1.9084106 L 19.925916 3.96875 L 10.995711 3.96875 A 0.2645835 0.2645835 0 0 0 10.8474 3.9082886 A 0.2645835 0.2645835 0 0 0 10.702189 3.96875 L 1.8515666 3.96875 A 0.26460945 0.26460945 0 0 0 1.5880168 4.2322998 L 1.5880168 24.87135 A 0.26460945 0.26460945 0 0 0 1.8515666 25.1349 L 10.653097 25.1349 A 0.2645835 0.2645835 0 0 0 10.8474 25.232568 A 0.2645835 0.2645835 0 0 0 11.04377 25.1349 L 35.71875 25.1349 A 0.26460945 0.26460945 0 0 0 35.9823 24.87135 L 35.9823 12.017354 L 37.972876 12.017354 C 38.231005 12.017354 38.445199 11.80109 38.445199 11.542965 L 38.445199 1.9084106 C 38.445199 1.6502829 38.231005 1.4335042 37.972876 1.4335042 L 20.400305 1.4335042 z M 20.455082 1.9626709 L 37.918099 1.9626709 L 37.918099 11.488188 L 20.455082 11.488188 L 20.455082 1.9626709 z M 28.444259 3.589445 C 28.311719 3.589445 28.205514 3.6961679 28.205514 3.8287069 L 28.205514 9.4040771 L 27.075867 9.4040771 L 27.075867 4.6896362 C 27.075867 4.576308 26.984556 4.4849976 26.871228 4.4849976 L 25.344189 4.4849976 C 25.230863 4.4849976 25.139551 4.576308 25.139551 4.6896362 L 25.139551 9.4040771 L 24.009904 9.4040771 L 24.009904 5.7825928 C 24.009904 5.6936475 23.938653 5.6218791 23.849707 5.6218791 L 22.234302 5.6218791 C 22.145356 5.6218791 22.073588 5.6936475 22.073588 5.7825928 L 22.073588 9.4040771 L 21.6054 9.4040771 C 21.492071 9.4040771 21.400761 9.4948708 21.400761 9.6081991 L 21.400761 9.7849325 C 21.400761 9.8982605 21.492071 9.9895711 21.6054 9.9895711 L 36.766231 9.9895711 C 36.87956 9.9895711 36.97087 9.8982605 36.97087 9.7849325 L 36.97087 9.6081991 C 36.97087 9.4948708 36.87956 9.4040771 36.766231 9.4040771 L 36.273238 9.4040771 L 36.273238 7.2062785 C 36.273238 7.1491047 36.227059 7.1029256 36.169885 7.1029256 L 34.439758 7.1029256 C 34.382585 7.1029256 34.336922 7.1491047 34.336922 7.2062785 L 34.336922 9.4040771 L 33.207275 9.4040771 L 33.207275 5.7825928 C 33.207275 5.6936475 33.135507 5.6218791 33.046562 5.6218791 L 31.431673 5.6218791 C 31.342728 5.6218791 31.270959 5.6936475 31.270959 5.7825928 L 31.270959 9.4040771 L 30.141313 9.4040771 L 30.141313 3.8287069 C 30.141313 3.6961679 30.035105 3.589445 29.902568 3.589445 L 28.444259 3.589445 z M 2.1171834 4.4979167 L 10.58385 4.4979167 L 10.58385 7.9375 L 2.1171834 7.9375 L 2.1171834 4.4979167 z M 11.113534 4.4979167 L 19.925916 4.4979167 L 19.925916 7.9375 L 11.113534 7.9375 L 11.113534 4.4979167 z M 2.1171834 8.4666667 L 10.58385 8.4666667 L 10.58385 11.113534 L 2.1171834 11.113534 L 2.1171834 8.4666667 z M 11.113534 8.4666667 L 17.783411 8.4666667 L 19.925916 8.4666667 L 19.925916 11.113534 L 18.04696 11.113534 L 18.04696 8.7302165 A 0.2645835 0.2645835 0 0 0 17.783411 8.4666667 A 0.2645835 0.2645835 0 0 0 17.517794 8.7302165 L 17.517794 11.113534 L 11.113534 11.113534 L 11.113534 8.4666667 z M 2.9259196 9.0247721 C 2.8125912 9.0247721 2.7212809 9.1160824 2.7212809 9.2294108 L 2.7212809 10.370426 C 2.7212809 10.483755 2.8125912 10.575065 2.9259196 10.575065 L 9.8195557 10.575065 C 9.9328841 10.575065 10.023678 10.483755 10.023678 10.370426 L 10.023678 9.2294108 C 10.023678 9.1160824 9.9328841 9.0247721 9.8195557 9.0247721 L 2.9259196 9.0247721 z M 2.1171834 11.6427 L 10.58385 11.6427 L 10.58385 14.5526 L 2.1171834 14.5526 L 2.1171834 11.6427 z M 11.113534 11.6427 L 17.517794 11.6427 L 17.517794 14.5526 L 11.113534 14.5526 L 11.113534 11.6427 z M 18.04696 11.6427 L 19.937284 11.6427 C 19.984325 11.854469 20.176321 12.017354 20.400305 12.017354 L 23.8125 12.017354 L 23.8125 14.5526 L 18.04696 14.5526 L 18.04696 11.6427 z M 24.341667 12.017354 L 30.161983 12.017354 L 30.161983 14.5526 L 24.341667 14.5526 L 24.341667 12.017354 z M 30.69115 12.017354 L 35.4552 12.017354 L 35.4552 14.5526 L 30.69115 14.5526 L 30.69115 12.017354 z M 2.9259196 12.331547 C 2.8125912 12.331547 2.7212809 12.422857 2.7212809 12.536186 L 2.7212809 13.677201 C 2.7212809 13.79053 2.8125912 13.88184 2.9259196 13.88184 L 9.8195557 13.88184 C 9.9328841 13.88184 10.023678 13.79053 10.023678 13.677201 L 10.023678 12.536186 C 10.023678 12.422857 9.9328841 12.331547 9.8195557 12.331547 L 2.9259196 12.331547 z M 11.813232 12.331547 C 11.699904 12.331547 11.608594 12.422857 11.608594 12.536186 L 11.608594 13.677201 C 11.608594 13.79053 11.699904 13.88184 11.813232 13.88184 L 16.777271 13.88184 C 16.890599 13.88184 16.981909 13.79053 16.981909 13.677201 L 16.981909 12.536186 C 16.981909 12.422857 16.890599 12.331547 16.777271 12.331547 L 11.813232 12.331547 z M 2.1171834 15.082284 L 10.58385 15.082284 L 10.58385 18.255733 L 2.1171834 18.255733 L 2.1171834 15.082284 z M 11.113534 15.082284 L 17.517794 15.082284 L 17.517794 18.255733 L 11.113534 18.255733 L 11.113534 15.082284 z M 18.04696 15.082284 L 23.8125 15.082284 L 23.8125 18.255733 L 18.04696 18.255733 L 18.04696 15.082284 z M 24.341667 15.082284 L 30.161983 15.082284 L 30.161983 18.255733 L 24.341667 18.255733 L 24.341667 15.082284 z M 30.69115 15.082284 L 35.4552 15.082284 L 35.4552 18.255733 L 30.69115 18.255733 L 30.69115 15.082284 z M 2.9259196 15.845544 C 2.8125912 15.845544 2.7212809 15.936338 2.7212809 16.049666 L 2.7212809 17.190682 C 2.7212809 17.30401 2.8125912 17.395321 2.9259196 17.395321 L 9.8195557 17.395321 C 9.9328841 17.395321 10.023678 17.30401 10.023678 17.190682 L 10.023678 16.049666 C 10.023678 15.936338 9.9328841 15.845544 9.8195557 15.845544 L 2.9259196 15.845544 z M 11.813232 15.845544 C 11.699904 15.845544 11.608594 15.936338 11.608594 16.049666 L 11.608594 17.190682 C 11.608594 17.30401 11.699904 17.395321 11.813232 17.395321 L 16.777271 17.395321 C 16.890599 17.395321 16.981909 17.30401 16.981909 17.190682 L 16.981909 16.049666 C 16.981909 15.936338 16.890599 15.845544 16.777271 15.845544 L 11.813232 15.845544 z M 18.702218 15.845544 C 18.588889 15.845544 18.497579 15.936338 18.497579 16.049666 L 18.497579 17.190682 C 18.497579 17.30401 18.588889 17.395321 18.702218 17.395321 L 23.046655 17.395321 C 23.159984 17.395321 23.251294 17.30401 23.251294 17.190682 L 23.251294 16.049666 C 23.251294 15.936338 23.159984 15.845544 23.046655 15.845544 L 18.702218 15.845544 z M 25.143685 15.845544 C 25.030356 15.845544 24.939046 15.936338 24.939046 16.049666 L 24.939046 17.190682 C 24.939046 17.30401 25.030356 17.395321 25.143685 17.395321 L 29.488123 17.395321 C 29.601451 17.395321 29.692761 17.30401 29.692761 17.190682 L 29.692761 16.049666 C 29.692761 15.936338 29.601451 15.845544 29.488123 15.845544 L 25.143685 15.845544 z M 31.343823 15.845544 C 31.230495 15.845544 31.139701 15.936338 31.139701 16.049666 L 31.139701 17.190682 C 31.139701 17.30401 31.230495 17.395321 31.343823 17.395321 L 34.723979 17.395321 C 34.837307 17.395321 34.928617 17.30401 34.928617 17.190682 L 34.928617 16.049666 C 34.928617 15.936338 34.837307 15.845544 34.723979 15.845544 L 31.343823 15.845544 z M 2.1171834 18.7849 L 10.58385 18.7849 L 10.58385 21.431767 L 2.1171834 21.431767 L 2.1171834 18.7849 z M 11.113534 18.7849 L 17.517794 18.7849 L 17.517794 21.431767 L 11.113534 21.431767 L 11.113534 18.7849 z M 18.04696 18.7849 L 23.8125 18.7849 L 23.8125 21.431767 L 18.04696 21.431767 L 18.04696 18.7849 z M 24.341667 18.7849 L 30.161983 18.7849 L 30.161983 21.431767 L 24.341667 21.431767 L 24.341667 18.7849 z M 30.69115 18.7849 L 35.4552 18.7849 L 35.4552 21.431767 L 30.69115 21.431767 L 30.69115 18.7849 z M 2.9259196 19.324402 C 2.8125912 19.324402 2.7212809 19.415712 2.7212809 19.529041 L 2.7212809 20.670056 C 2.7212809 20.783385 2.8125912 20.874695 2.9259196 20.874695 L 9.8195557 20.874695 C 9.9328841 20.874695 10.023678 20.783385 10.023678 20.670056 L 10.023678 19.529041 C 10.023678 19.415712 9.9328841 19.324402 9.8195557 19.324402 L 2.9259196 19.324402 z M 11.813232 19.324402 C 11.699904 19.324402 11.608594 19.415712 11.608594 19.529041 L 11.608594 20.670056 C 11.608594 20.783385 11.699904 20.874695 11.813232 20.874695 L 16.777271 20.874695 C 16.890599 20.874695 16.981909 20.783385 16.981909 20.670056 L 16.981909 19.529041 C 16.981909 19.415712 16.890599 19.324402 16.777271 19.324402 L 11.813232 19.324402 z M 18.702218 19.324402 C 18.588889 19.324402 18.497579 19.415712 18.497579 19.529041 L 18.497579 20.670056 C 18.497579 20.783385 18.588889 20.874695 18.702218 20.874695 L 23.046655 20.874695 C 23.159984 20.874695 23.251294 20.783385 23.251294 20.670056 L 23.251294 19.529041 C 23.251294 19.415712 23.159984 19.324402 23.046655 19.324402 L 18.702218 19.324402 z M 25.143685 19.324402 C 25.030356 19.324402 24.939046 19.415712 24.939046 19.529041 L 24.939046 20.670056 C 24.939046 20.783385 25.030356 20.874695 25.143685 20.874695 L 29.488123 20.874695 C 29.601451 20.874695 29.692761 20.783385 29.692761 20.670056 L 29.692761 19.529041 C 29.692761 19.415712 29.601451 19.324402 29.488123 19.324402 L 25.143685 19.324402 z M 31.343823 19.324402 C 31.230495 19.324402 31.139701 19.415712 31.139701 19.529041 L 31.139701 20.670056 C 31.139701 20.783385 31.230495 20.874695 31.343823 20.874695 L 34.723979 20.874695 C 34.837307 20.874695 34.928617 20.783385 34.928617 20.670056 L 34.928617 19.529041 C 34.928617 19.415712 34.837307 19.324402 34.723979 19.324402 L 31.343823 19.324402 z M 2.1171834 21.960933 L 10.58385 21.960933 L 10.58385 24.605216 L 2.1171834 24.605216 L 2.1171834 21.960933 z M 11.113534 21.960933 L 17.517794 21.960933 L 17.517794 24.605216 L 11.113534 24.605216 L 11.113534 21.960933 z M 18.04696 21.960933 L 23.8125 21.960933 L 23.8125 24.605216 L 18.04696 24.605216 L 18.04696 21.960933 z M 24.341667 21.960933 L 30.161983 21.960933 L 30.161983 24.605216 L 24.341667 24.605216 L 24.341667 21.960933 z M 30.69115 21.960933 L 35.4552 21.960933 L 35.4552 24.605216 L 30.69115 24.605216 L 30.69115 21.960933 z M 2.9259196 22.631177 C 2.8125912 22.631177 2.7212809 22.722487 2.7212809 22.835815 L 2.7212809 23.976831 C 2.7212809 24.090159 2.8125912 24.18147 2.9259196 24.18147 L 9.8195557 24.18147 C 9.9328841 24.18147 10.023678 24.090159 10.023678 23.976831 L 10.023678 22.835815 C 10.023678 22.722487 9.9328841 22.631177 9.8195557 22.631177 L 2.9259196 22.631177 z M 11.813232 22.631177 C 11.699904 22.631177 11.608594 22.722487 11.608594 22.835815 L 11.608594 23.976831 C 11.608594 24.090159 11.699904 24.18147 11.813232 24.18147 L 16.777271 24.18147 C 16.890599 24.18147 16.981909 24.090159 16.981909 23.976831 L 16.981909 22.835815 C 16.981909 22.722487 16.890599 22.631177 16.777271 22.631177 L 11.813232 22.631177 z M 18.702218 22.631177 C 18.588889 22.631177 18.497579 22.722487 18.497579 22.835815 L 18.497579 23.976831 C 18.497579 24.090159 18.588889 24.18147 18.702218 24.18147 L 23.046655 24.18147 C 23.159984 24.18147 23.251294 24.090159 23.251294 23.976831 L 23.251294 22.835815 C 23.251294 22.722487 23.159984 22.631177 23.046655 22.631177 L 18.702218 22.631177 z M 25.143685 22.631177 C 25.030356 22.631177 24.939046 22.722487 24.939046 22.835815 L 24.939046 23.976831 C 24.939046 24.090159 25.030356 24.18147 25.143685 24.18147 L 29.488123 24.18147 C 29.601451 24.18147 29.692761 24.090159 29.692761 23.976831 L 29.692761 22.835815 C 29.692761 22.722487 29.601451 22.631177 29.488123 22.631177 L 25.143685 22.631177 z M 31.343823 22.631177 C 31.230495 22.631177 31.139701 22.722487 31.139701 22.835815 L 31.139701 23.976831 C 31.139701 24.090159 31.230495 24.18147 31.343823 24.18147 L 34.723979 24.18147 C 34.837307 24.18147 34.928617 24.090159 34.928617 23.976831 L 34.928617 22.835815 C 34.928617 22.722487 34.837307 22.631177 34.723979 22.631177 L 31.343823 22.631177 z " />
  </g>
</svg>
