<?xml version="1.0" encoding="UTF-8" standalone="no"?>
<!-- Created with Inkscape (http://www.inkscape.org/) -->

<svg
   width="48"
   height="48"
   viewBox="0 0 12.7 12.7"
   version="1.1"
   id="svg1"
   xml:space="preserve"
   inkscape:version="1.3.2 (091e20e, 2023-11-25, custom)"
   sodipodi:docname="Download.svg"
   xmlns:inkscape="http://www.inkscape.org/namespaces/inkscape"
   xmlns:sodipodi="http://sodipodi.sourceforge.net/DTD/sodipodi-0.dtd"
   xmlns="http://www.w3.org/2000/svg"
   xmlns:svg="http://www.w3.org/2000/svg"><sodipodi:namedview
     id="namedview1"
     pagecolor="#ffffff"
     bordercolor="#000000"
     borderopacity="0.25"
     inkscape:showpageshadow="2"
     inkscape:pageopacity="0.0"
     inkscape:pagecheckerboard="0"
     inkscape:deskcolor="#d1d1d1"
     inkscape:document-units="mm"
     showgrid="false"
     inkscape:zoom="7.2142863"
     inkscape:cx="67.920787"
     inkscape:cy="51.910887"
     inkscape:window-width="2400"
     inkscape:window-height="1271"
     inkscape:window-x="2391"
     inkscape:window-y="230"
     inkscape:window-maximized="1"
     inkscape:current-layer="layer1" /><defs
     id="defs1" /><g
     inkscape:label="Layer 1"
     inkscape:groupmode="layer"
     id="layer1"><path
       id="rect1"
       style="fill:#000000;stroke-width:0.529167;stroke-linecap:round;stroke-linejoin:round;paint-order:stroke fill markers"
       d="M 7.4512155,0.057215 6.5e-6,1.344335 v 9.93981 l 7.494188,1.35864 -0.004,-1.15842 h 5.1782185 c 0.01749,0 0.03158,-0.0141 0.03158,-0.0316 v -0.66629 -8.70141 -0.66628 c 0,-0.0175 -0.0141,-0.0315 -0.03158,-0.0315 H 7.4557675 Z m 0.007,2.05946 h 4.5124135 v 8.63825 H 7.4877195 l -0.0029,-0.8295 h 0.894493 c 0.0087,0 0.01587,-0.0152 0.01587,-0.034 v -0.90438 c 0,-0.0189 -0.0071,-0.0341 -0.01587,-0.0341 h -0.897763 l -0.0016,-0.45769 h 0.899358 c 0.0087,0 0.01587,-0.0152 0.01587,-0.034 v -0.90438 c 0,-0.0189 -0.0071,-0.034 -0.01587,-0.034 h -0.902626 l -0.0021,-0.58639 h 0.9047 c 0.0087,0 0.01587,-0.0152 0.01587,-0.0341 v -0.90438 c 0,-0.0189 -0.0071,-0.0341 -0.01587,-0.0341 h -0.907969 l -0.0017,-0.51487 h 0.909723 c 0.0087,0 0.01587,-0.0152 0.01587,-0.034 v -0.90438 c 0,-0.0189 -0.0071,-0.034 -0.01587,-0.034 h -0.913071 l -0.0019,-0.55784 h 0.914985 c 0.0087,0 0.01587,-0.0152 0.01587,-0.0341 v -0.90438 c 0,-0.0189 -0.0071,-0.034 -0.01587,-0.034 h -0.918255 z m 1.585975,0.8295 c -0.01888,0 -0.03405,0.0152 -0.03405,0.034 v 0.90438 c 0,0.0189 0.01517,0.034 0.03405,0.034 h 2.0628025 c 0.01886,0 0.03413,-0.0152 0.03413,-0.034 v -0.90438 c 0,-0.0189 -0.01524,-0.034 -0.03413,-0.034 z m -6.370291,1.34708 h 2.432465 c 0.01234,0 0.02233,0.01 0.02233,0.0222 v 2.3245 h 1.10444 l -2.309191,2.30927 c -0.01879,0.0188 -0.04899,0.0188 -0.06778,0 l -2.309176,-2.30924 h 1.1046 v -2.3245 c 0,-0.0124 0.01,-0.0222 0.02233,-0.0222 z m 6.370291,0.18324 c -0.01888,0 -0.03405,0.0152 -0.03405,0.0341 v 0.90438 c 0,0.0189 0.01517,0.034 0.03405,0.034 h 2.0628025 c 0.01886,0 0.03413,-0.0152 0.03413,-0.034 v -0.90438 c 0,-0.0189 -0.01524,-0.0341 -0.03413,-0.0341 z m 0,1.48734 c -0.01888,0 -0.03405,0.0152 -0.03405,0.0341 v 0.90438 c 0,0.0189 0.01517,0.0341 0.03405,0.0341 h 2.0628025 c 0.01886,0 0.03413,-0.0152 0.03413,-0.0341 v -0.90438 c 0,-0.0189 -0.01524,-0.0341 -0.03413,-0.0341 z m 0,1.55894 c -0.01888,0 -0.03405,0.0152 -0.03405,0.034 v 0.90438 c 0,0.0189 0.01517,0.034 0.03405,0.034 h 2.0628025 c 0.01886,0 0.03413,-0.0152 0.03413,-0.034 v -0.90438 c 0,-0.0189 -0.01524,-0.034 -0.03413,-0.034 z m 0,1.43017 c -0.01888,0 -0.03405,0.0152 -0.03405,0.0341 v 0.90438 c 0,0.0189 0.01517,0.034 0.03405,0.034 h 2.0628025 c 0.01886,0 0.03413,-0.0152 0.03413,-0.034 v -0.90438 c 0,-0.0189 -0.01524,-0.0341 -0.03413,-0.0341 z" /></g></svg>
