<?xml version="1.0" encoding="UTF-8" standalone="no"?>
<!-- Created with Inkscape (http://www.inkscape.org/) -->

<svg
   width="48"
   height="48"
   viewBox="0 0 12.7 12.7"
   version="1.1"
   id="svg1"
   xml:space="preserve"
   inkscape:version="1.3.2 (091e20e, 2023-11-25, custom)"
   sodipodi:docname="Download_Excel.svg"
   xmlns:inkscape="http://www.inkscape.org/namespaces/inkscape"
   xmlns:sodipodi="http://sodipodi.sourceforge.net/DTD/sodipodi-0.dtd"
   xmlns="http://www.w3.org/2000/svg"
   xmlns:svg="http://www.w3.org/2000/svg"><sodipodi:namedview
     id="namedview1"
     pagecolor="#ffffff"
     bordercolor="#000000"
     borderopacity="0.25"
     inkscape:showpageshadow="2"
     inkscape:pageopacity="0.0"
     inkscape:pagecheckerboard="0"
     inkscape:deskcolor="#d1d1d1"
     inkscape:document-units="mm"
     showgrid="false"
     inkscape:zoom="10.131293"
     inkscape:cx="26.650103"
     inkscape:cy="28.673537"
     inkscape:window-width="2400"
     inkscape:window-height="1271"
     inkscape:window-x="2391"
     inkscape:window-y="230"
     inkscape:window-maximized="1"
     inkscape:current-layer="layer1" /><defs
     id="defs1" /><g
     inkscape:label="Layer 1"
     inkscape:groupmode="layer"
     id="layer1"><path
       id="rect1"
       style="fill:#000000;stroke-width:0.529167;stroke-linecap:round;stroke-linejoin:round;paint-order:stroke fill markers"
       d="M 7.4512248 0.05736084 L 0 1.344104 L 0 11.284066 L 7.4941162 12.642639 L 7.4899821 11.48457 L 12.668477 11.48457 C 12.685967 11.48457 12.7 11.470031 12.7 11.452531 L 12.7 10.786422 L 12.7 2.085144 L 12.7 1.4190348 C 12.7 1.4015348 12.685957 1.3875122 12.668477 1.3875122 L 7.4558757 1.3875122 L 7.4512248 0.05736084 z M 7.4584595 2.1166667 L 11.970846 2.1166667 L 11.970846 10.754899 L 7.487915 10.754899 L 7.4848145 9.9254924 L 8.3793335 9.9254924 C 8.3880335 9.9254924 8.3953532 9.9101859 8.3953532 9.8913859 L 8.3953532 8.9870483 C 8.3953532 8.9681484 8.3881035 8.9529419 8.3793335 8.9529419 L 7.4817139 8.9529419 L 7.4801636 8.4950887 L 8.3793335 8.4950887 C 8.3880335 8.4950887 8.3953532 8.480299 8.3953532 8.461499 L 8.3953532 7.5566447 C 8.3953532 7.5377447 8.3881035 7.523055 8.3793335 7.523055 L 7.4765462 7.523055 L 7.4744792 6.9365275 L 8.3793335 6.9365275 C 8.3880335 6.9365275 8.3953532 6.921321 8.3953532 6.9024211 L 8.3953532 5.9980835 C 8.3953532 5.9791835 8.3881035 5.9639771 8.3793335 5.9639771 L 7.4713786 5.9639771 L 7.4698283 5.4492798 L 8.3793335 5.4492798 C 8.3880335 5.4492798 8.3953532 5.4339733 8.3953532 5.4151733 L 8.3953532 4.5108358 C 8.3953532 4.4919358 8.3881035 4.4767293 8.3793335 4.4767293 L 7.4662109 4.4767293 L 7.4641439 3.9186239 L 8.3793335 3.9186239 C 8.3880335 3.9186239 8.3953532 3.9034174 8.3953532 3.8845174 L 8.3953532 2.9801799 C 8.3953532 2.9612799 8.3881035 2.9465902 8.3793335 2.9465902 L 7.4610433 2.9465902 L 7.4584595 2.1166667 z M 5.9293538 2.7894938 L 4.2782918 6.2306274 L 6.0110026 9.8422933 L 4.5335734 9.7528931 L 3.5687744 7.2414185 L 2.6634033 9.597347 L 1.3270508 9.597347 L 2.8938802 6.2280436 L 1.4086995 3.0344401 L 2.7450521 3.0344401 L 3.6416382 5.2544596 L 4.6896362 2.8189494 L 5.9293538 2.7894938 z M 9.0444092 2.9460734 C 9.0255292 2.9460734 9.0103027 2.9613799 9.0103027 2.9801799 L 9.0103027 3.8845174 C 9.0103027 3.9034174 9.0255292 3.9186239 9.0444092 3.9186239 L 11.106816 3.9186239 C 11.125676 3.9186239 11.140922 3.9033174 11.140922 3.8845174 L 11.140922 2.9801799 C 11.140922 2.9612799 11.125706 2.9460734 11.106816 2.9460734 L 9.0444092 2.9460734 z M 9.0444092 4.4767293 C 9.0255292 4.4767293 9.0103027 4.4919358 9.0103027 4.5108358 L 9.0103027 5.4151733 C 9.0103027 5.4340733 9.0255292 5.448763 9.0444092 5.448763 L 11.106816 5.448763 C 11.125676 5.448763 11.140922 5.4339733 11.140922 5.4151733 L 11.140922 4.5108358 C 11.140922 4.4919358 11.125706 4.4767293 11.106816 4.4767293 L 9.0444092 4.4767293 z M 9.0444092 5.9639771 C 9.0255292 5.9639771 9.0103027 5.9791835 9.0103027 5.9980835 L 9.0103027 6.9024211 C 9.0103027 6.921321 9.0255292 6.9365275 9.0444092 6.9365275 L 11.106816 6.9365275 C 11.125676 6.9365275 11.140922 6.921321 11.140922 6.9024211 L 11.140922 5.9980835 C 11.140922 5.9791835 11.125706 5.9639771 11.106816 5.9639771 L 9.0444092 5.9639771 z M 9.0444092 7.5225382 C 9.0255292 7.5225382 9.0103027 7.5378447 9.0103027 7.5566447 L 9.0103027 8.4609823 C 9.0103027 8.4798822 9.0255292 8.4950887 9.0444092 8.4950887 L 11.106816 8.4950887 C 11.125676 8.4950887 11.140922 8.4797822 11.140922 8.4609823 L 11.140922 7.5566447 C 11.140922 7.5377447 11.125706 7.5225382 11.106816 7.5225382 L 9.0444092 7.5225382 z M 9.0444092 8.9529419 C 9.0255292 8.9529419 9.0103027 8.9681484 9.0103027 8.9870483 L 9.0103027 9.8913859 C 9.0103027 9.9102859 9.0255292 9.9254924 9.0444092 9.9254924 L 11.106816 9.9254924 C 11.125676 9.9254924 11.140922 9.9101859 11.140922 9.8913859 L 11.140922 8.9870483 C 11.140922 8.9681484 11.125706 8.9529419 11.106816 8.9529419 L 9.0444092 8.9529419 z " /></g></svg>
