<?xml version="1.0" encoding="UTF-8" standalone="no"?>
<!-- Created with Inkscape (http://www.inkscape.org/) -->

<svg
   width="48"
   height="48"
   viewBox="0 0 12.7 12.7"
   version="1.1"
   id="svg1"
   xml:space="preserve"
   sodipodi:docname="ESG.svg"
   inkscape:version="1.3.2 (091e20e, 2023-11-25, custom)"
   xmlns:inkscape="http://www.inkscape.org/namespaces/inkscape"
   xmlns:sodipodi="http://sodipodi.sourceforge.net/DTD/sodipodi-0.dtd"
   xmlns="http://www.w3.org/2000/svg"
   xmlns:svg="http://www.w3.org/2000/svg"><sodipodi:namedview
     id="namedview1"
     pagecolor="#ffffff"
     bordercolor="#000000"
     borderopacity="0.25"
     inkscape:showpageshadow="2"
     inkscape:pageopacity="0.0"
     inkscape:pagecheckerboard="0"
     inkscape:deskcolor="#d1d1d1"
     inkscape:document-units="px"
     inkscape:zoom="4.7786291"
     inkscape:cx="90.925659"
     inkscape:cy="28.564678"
     inkscape:window-width="2400"
     inkscape:window-height="1271"
     inkscape:window-x="2391"
     inkscape:window-y="230"
     inkscape:window-maximized="1"
     inkscape:current-layer="layer1"
     showgrid="false" /><defs
     id="defs1" /><g
     inkscape:label="Layer 1"
     inkscape:groupmode="layer"
     id="layer1"><g
       id="g1"
       transform="matrix(0.50252998,0,0,0.50252998,-13.341087,0.88899529)"
       style="stroke-width:1.98993"><path
         id="path7"
         style="fill:#3b74cd;fill-opacity:1;stroke-width:1.98993"
         d="m 30.835744,3.0370931 c -0.01377,0 -0.140132,0.086669 -0.280312,0.19279 -0.14018,0.1061189 -0.365196,0.2947696 -0.500031,0.419242 -0.134833,0.1244734 -0.370771,0.3774928 -0.52451,0.5618456 -0.15374,0.1843537 -0.369422,0.4834953 -0.479221,0.6652788 -0.109798,0.1817844 -0.252332,0.462682 -0.317033,0.6242728 -0.06469,0.1615913 -0.144333,0.3965072 -0.176876,0.5214514 -0.03254,0.1249444 -0.07076,0.3613516 -0.08445,0.5257355 -0.01458,0.1746867 -0.0059,0.4083021 0.02081,0.5618454 0.02517,0.1444874 0.08146,0.3576795 0.12485,0.473713 0.04342,0.1160331 0.14628,0.3121163 0.2289,0.4357668 0.08263,0.1236499 0.253136,0.3252352 0.378234,0.4480074 0.125101,0.1227727 0.297327,0.2759673 0.383134,0.3402896 0.0858,0.064323 0.169362,0.1175347 0.185444,0.118127 0.01609,5.923e-4 0.02939,-0.00426 0.02939,-0.010434 0,-0.00616 -0.03422,-0.1078818 -0.0759,-0.2264521 -0.04167,-0.1185706 -0.114543,-0.3991544 -0.161576,-0.6230486 -0.0654,-0.3113771 -0.08516,-0.539953 -0.08507,-0.972519 9.4e-5,-0.4355328 0.01921,-0.6499806 0.08324,-0.9339609 0.04982,-0.2209544 0.15247,-0.510188 0.256442,-0.7215858 0.09543,-0.1940313 0.21928,-0.4056901 0.274803,-0.4700407 0.08973,-0.1040002 0.08462,-0.084345 -0.04284,0.1756531 -0.07886,0.1608784 -0.176905,0.3887844 -0.217883,0.5067626 -0.04099,0.1179771 -0.09877,0.3290329 -0.128521,0.4688166 -0.02976,0.1397848 -0.06622,0.3858192 -0.08078,0.5465446 -0.01555,0.1714855 -0.0068,0.445012 0.02143,0.6622188 0.02637,0.2035772 0.08237,0.4842322 0.124237,0.6236607 0.04187,0.1394284 0.148294,0.4072024 0.236245,0.5948952 0.08795,0.1876917 0.176819,0.3415134 0.197687,0.3415134 0.02088,0 0.159824,-0.099948 0.308464,-0.2215548 0.148637,-0.121606 0.408079,-0.3683317 0.576533,-0.5483811 0.197364,-0.2109461 0.362537,-0.4355602 0.464532,-0.6316172 0.08705,-0.1673392 0.184364,-0.416295 0.216659,-0.5532769 0.03228,-0.1369818 0.05904,-0.3832629 0.05936,-0.5471566 3.87e-4,-0.1927338 -0.03358,-0.4290458 -0.09607,-0.669563 C 31.701877,5.5114305 31.516492,4.9907894 31.343118,4.5592169 31.169743,4.1276445 30.990722,3.6089674 30.944685,3.4061485 30.898649,3.2033282 30.849577,3.0370931 30.835744,3.0370931 Z m -3.839892,3.8558022 c -0.03096,-0.00448 -0.04724,0.033133 -0.07957,0.1083295 -0.03555,0.082717 -0.106074,0.2714504 -0.157294,0.4192421 -0.05122,0.1477914 -0.119968,0.4086214 -0.152395,0.5795943 -0.03242,0.1709728 -0.05875,0.5091515 -0.05875,0.7515757 0,0.2424231 0.02488,0.5727455 0.05569,0.7338253 0.03081,0.1610807 0.10352,0.412309 0.161576,0.5587858 0.05807,0.146475 0.165874,0.357803 0.239305,0.469427 0.07343,0.111645 0.239146,0.300748 0.368442,0.420467 0.129314,0.11972 0.351775,0.276396 0.494523,0.347635 0.142748,0.07123 0.384571,0.159111 0.536753,0.19585 0.152183,0.03675 0.33921,0.06133 0.416182,0.05445 0.139952,-0.01251 0.140246,-0.01251 -0.12485,-0.233797 -0.145809,-0.121668 -0.390038,-0.376153 -0.542875,-0.565503 -0.152835,-0.189348 -0.357062,-0.502214 -0.453515,-0.69527 C 27.602624,9.8444536 27.488287,9.5480234 27.44508,9.3783504 27.39611,9.1859828 27.36844,8.9582505 27.37164,8.7736629 c 0.0052,-0.2960184 0.0056,-0.2956516 0.03673,-0.022645 0.01716,0.1501524 0.06117,0.3869192 0.09793,0.5263472 0.03673,0.1394273 0.116603,0.3645106 0.177488,0.5006407 0.06088,0.1361329 0.18729,0.3557922 0.281534,0.4877912 0.09425,0.131999 0.274851,0.3399 0.400882,0.462085 0.126032,0.12218 0.305762,0.277571 0.399658,0.345186 0.09389,0.06762 0.322726,0.199421 0.508598,0.293162 0.185871,0.09375 0.505573,0.215343 0.710569,0.269907 0.204996,0.05456 0.50285,0.115381 0.661606,0.135263 0.158759,0.01988 0.464238,0.02859 0.678745,0.01958 0.214506,-0.009 0.494957,-0.03515 0.623659,-0.05814 0.128702,-0.02296 0.373175,-0.0856 0.542874,-0.139545 0.169698,-0.05392 0.415327,-0.152033 0.545932,-0.217883 0.130607,-0.06585 0.337032,-0.187768 0.459023,-0.270518 0.122,-0.08275 0.32913,-0.248838 0.459638,-0.369667 0.130509,-0.120831 0.334957,-0.367134 0.454739,-0.547156 0.11979,-0.180023 0.269164,-0.4490526 0.331722,-0.5979553 0.06255,-0.1489052 0.148273,-0.4076356 0.190342,-0.5746984 0.04207,-0.1670637 0.08609,-0.4441008 0.09792,-0.6157039 0.02152,-0.3120041 0.02135,-0.3118382 -0.07344,0.039169 -0.05213,0.1930543 -0.133026,0.4475388 -0.179937,0.5655171 -0.04692,0.1179742 -0.166223,0.3504175 -0.26501,0.5165549 -0.0988,0.1661387 -0.293198,0.4261842 -0.432094,0.5783716 -0.138895,0.152186 -0.367918,0.36481 -0.509211,0.471875 -0.141293,0.107069 -0.432416,0.280804 -0.64692,0.386803 -0.21694,0.10719 -0.563401,0.237793 -0.780339,0.293778 -0.321894,0.08305 -0.481658,0.101166 -0.916213,0.102824 -0.358556,0.0013 -0.623503,-0.01957 -0.830528,-0.06488 -0.1672,-0.0366 -0.439404,-0.118232 -0.604687,-0.181773 -0.165285,-0.06355 -0.321088,-0.128882 -0.346411,-0.145052 -0.03447,-0.02201 -0.02644,-0.09786 0.03182,-0.301731 0.04279,-0.149809 0.08751,-0.449872 0.09975,-0.6665027 0.01451,-0.2566707 0.0052,-0.4668138 -0.02694,-0.604075 C 29.523965,9.2747621 29.456708,9.0832309 29.401718,8.9652526 29.337117,8.8265568 29.197501,8.6475809 29.006379,8.4584733 28.843784,8.2975942 28.526727,8.0438817 28.30193,7.8947918 28.077132,7.7457018 27.770279,7.5336211 27.620127,7.4235271 27.469971,7.3134349 27.264808,7.1397245 27.164163,7.0373348 27.072657,6.9442535 27.02681,6.8973665 26.995852,6.8928953 Z m 7.841357,0.1003725 c -0.03846,-4.426e-4 -0.168974,0.032932 -0.315198,0.082011 -0.167108,0.056097 -0.667852,0.1622272 -1.112672,0.2356322 -0.444824,0.07341 -0.928964,0.1707069 -1.075953,0.2160473 -0.146989,0.045344 -0.372198,0.135362 -0.500643,0.2001345 -0.135195,0.068175 -0.342449,0.2261619 -0.492075,0.3757877 -0.151477,0.1514784 -0.306729,0.3552129 -0.375175,0.4920739 -0.06424,0.1284457 -0.153376,0.3477489 -0.198296,0.4871769 -0.04494,0.1394281 -0.108849,0.4002584 -0.141993,0.5795946 -0.03314,0.1793371 -0.06061,0.3864741 -0.06061,0.4602491 0,0.134127 4.46e-4,0.134116 0.244202,0.109555 0.134069,-0.01351 0.347683,-0.04226 0.474936,-0.06366 0.127256,-0.02138 0.370551,-0.08956 0.541038,-0.151784 0.170484,-0.062217 0.442413,-0.1954649 0.604074,-0.2962225 0.161663,-0.1007567 0.414882,-0.2971624 0.562457,-0.4363787 0.147577,-0.1392162 0.372939,-0.4094835 0.500643,-0.6004038 0.127715,-0.1909189 0.231961,-0.3355372 0.231961,-0.3213167 0,0.014219 -0.07153,0.163958 -0.159129,0.3323337 -0.0876,0.1683735 -0.266861,0.4232101 -0.39782,0.5661296 -0.130954,0.142919 -0.350026,0.3447918 -0.487179,0.4486183 -0.137155,0.1038304 -0.419355,0.2752133 -0.62672,0.3812961 -0.207368,0.106085 -0.517643,0.237333 -0.68976,0.291327 -0.172117,0.054 -0.37878,0.110296 -0.459636,0.125468 -0.08276,0.01553 -0.141101,0.04677 -0.132804,0.07161 0.0081,0.02425 0.159982,0.09372 0.337231,0.154232 0.177248,0.06051 0.430429,0.124364 0.562456,0.141991 0.132024,0.01762 0.336142,0.0239 0.454128,0.01409 0.117981,-0.0098 0.328777,-0.05102 0.468204,-0.09181 0.13943,-0.0408 0.365174,-0.140428 0.501867,-0.221557 0.142734,-0.08472 0.375088,-0.282033 0.545931,-0.463311 0.163615,-0.173605 0.380689,-0.4546701 0.482283,-0.6242727 0.101597,-0.1696031 0.245679,-0.4576664 0.320091,-0.640185 0.07441,-0.1825185 0.179262,-0.4962625 0.233187,-0.6977169 0.05391,-0.2014544 0.119371,-0.5390464 0.145663,-0.7497392 0.0263,-0.210693 0.03841,-0.3930732 0.02632,-0.4051653 -0.0015,-0.00152 -0.0056,-0.00178 -0.01105,-0.00184 z" /><path
         id="rect15"
         style="fill:#666666;fill-opacity:1;stroke:none;stroke-width:1.05301;stroke-linecap:round;stroke-linejoin:round;paint-order:stroke fill markers"
         d="m 48.398287,0.4918169 -3.373925,1.946594 h 6.795605 z M 45.44705,2.5123168 v 0.6078057 h 5.878364 V 2.5123168 Z m 0.39082,0.7720742 v 0.3859893 h 0.159522 V 5.9536919 H 45.83787 v 0.3860853 h 1.076856 V 5.9536919 H 46.755201 V 3.6703803 h 0.159525 V 3.284391 h -0.159525 -0.757809 z m 2.00998,0 v 0.3859893 h 0.159524 V 5.9536919 H 47.84785 v 0.3860853 h 1.076856 V 5.9536919 H 48.765183 V 3.6703803 h 0.159523 V 3.284391 h -0.159523 -0.757809 z m 2.049886,0 v 0.3859893 h 0.159524 v 2.2833116 h -0.159524 v 0.3860853 h 1.076857 V 5.9536919 H 50.815069 V 3.6703803 h 0.159524 V 3.284391 H 50.815069 50.05726 Z M 45.44705,6.4629552 v 0.6078051 h 5.878364 V 6.4629552 Z m -0.263163,0.7720742 v 0.615985 h 6.404783 v -0.615985 z" /><path
         id="rect21"
         style="color:#000000;fill:#666666;fill-opacity:1;stroke-width:1.64599;stroke-linecap:round;stroke-linejoin:round;-inkscape-stroke:none;paint-order:stroke fill markers"
         d="m 41.573573,15.923879 c -0.872948,0 -1.586899,0.71395 -1.586899,1.5869 0,0.551626 0.285506,1.04076 0.715763,1.326207 -0.78643,0.254475 -1.357413,0.993585 -1.357413,1.863191 v 0.88349 h 0.666355 v -0.88349 c 0,-0.721945 0.570456,-1.292401 1.292402,-1.292401 h 0.540234 c 0.721949,0 1.292403,0.570456 1.292403,1.292401 v 0.88349 h 0.665704 v -0.88349 c 0,-0.869436 -0.570735,-1.608577 -1.356762,-1.863191 0.430258,-0.285447 0.715762,-0.774581 0.715762,-1.326207 0,-0.87295 -0.714599,-1.5869 -1.587549,-1.5869 z m 0,0.665705 c 0.513176,0 0.921844,0.408018 0.921844,0.921195 0,0.513174 -0.408668,0.923794 -0.921844,0.923794 -0.513174,0 -0.921195,-0.41062 -0.921195,-0.923794 0,-0.513177 0.408021,-0.921195 0.921195,-0.921195 z" /><path
         id="path23"
         style="color:#000000;fill:#3b74cd;fill-opacity:1;stroke-width:1.98993;stroke-linecap:round;stroke-linejoin:round;-inkscape-stroke:none;paint-order:stroke fill markers"
         d="m 45.762584,15.136697 c -0.707046,0 -1.28531,0.578264 -1.28531,1.285311 0,0.446791 0.231245,0.842967 0.579731,1.074166 -0.636971,0.206111 -1.099439,0.804756 -1.099439,1.509095 v 0.715584 h 0.539716 v -0.715584 c 0,-0.584741 0.462042,-1.046783 1.046783,-1.046783 h 0.437565 c 0.584744,0 1.046784,0.462042 1.046784,1.046783 v 0.715584 h 0.539187 v -0.715584 c 0,-0.704202 -0.462266,-1.30287 -1.098911,-1.509095 0.348488,-0.231199 0.579733,-0.627375 0.579733,-1.074166 0,-0.707047 -0.578791,-1.285311 -1.285839,-1.285311 z m 0,0.539189 c 0.415648,0 0.74665,0.330474 0.74665,0.746122 0,0.415647 -0.331002,0.748231 -0.74665,0.748231 -0.415646,0 -0.746123,-0.332584 -0.746123,-0.748231 0,-0.415648 0.330477,-0.746122 0.746123,-0.746122 z" /><path
         id="path8"
         style="color:#000000;fill:#3b74cd;stroke-width:1.98993;stroke-linecap:round;stroke-linejoin:round;-inkscape-stroke:none;paint-order:stroke fill markers"
         d="m 40.520167,0.15037842 c -3.205311,0 -6.072218,1.44906238 -7.986076,3.72587078 l 0.274402,0.2051554 c 1.850127,-2.1922031 4.616878,-3.58531085 7.711674,-3.58531085 1.681941,0 3.266058,0.41325468 4.66018,1.14049885 L 45.481621,1.4050822 C 44.005912,0.60512048 42.315873,0.15037842 40.520167,0.15037842 Z M 50.77122,8.6552856 50.449276,8.805664 c 0.102685,0.5775466 0.159164,1.1710314 0.159164,1.778186 0,2.744141 -1.095808,5.230326 -2.872176,7.048665 l 0.120406,0.364319 c 1.91058,-1.89099 3.095418,-4.513817 3.095418,-7.412984 0,-0.6592582 -0.0638,-1.3031309 -0.180868,-1.9285644 z M 30.214852,12.205456 c 0.728779,4.665779 4.551703,8.308659 9.302792,8.762256 l -0.131258,-0.361218 c -4.497969,-0.503019 -8.09888,-3.959192 -8.820134,-8.387602 z" /><path
         id="path9"
         style="color:#000000;fill:#999999;stroke-width:1.98993;stroke-linecap:round;stroke-linejoin:round;-inkscape-stroke:none;paint-order:stroke fill markers"
         d="m 40.529826,1.7652669 c -2.708028,0 -5.129941,1.2240355 -6.746875,3.1476115 l 0.232027,0.1736328 c 1.563091,-1.8520966 3.90019,-3.0292724 6.514848,-3.0292724 1.420998,0 2.759394,0.3493485 3.937227,0.9637654 L 44.721818,2.8251505 C 43.475056,2.1492978 42.046939,1.7652669 40.529826,1.7652669 Z m 8.66097,7.1856079 -0.272335,0.1266073 c 0.08675,0.4879439 0.134875,0.9897919 0.134875,1.5027509 0,2.109104 -0.768322,4.036035 -2.036568,5.523694 a 0.85643071,0.91760433 0 0 1 0.04754,0.302823 0.85643071,0.91760433 0 0 1 -0.0057,0.0894 c 1.41865,-1.564332 2.284615,-3.638828 2.284615,-5.915918 0,-0.556979 -0.05354,-1.1009567 -0.152445,-1.6293582 z M 31.82338,11.950175 c 0.615714,3.941913 3.845482,7.019424 7.859469,7.402649 L 39.572261,19.047933 C 35.772124,18.622954 32.729875,15.702914 32.12052,11.961544 Z" /></g></g></svg>
