<?xml version="1.0" encoding="UTF-8" standalone="no"?>
<!-- Created with Inkscape (http://www.inkscape.org/) -->

<svg
   width="300"
   height="80"
   viewBox="0 0 79.374998 21.166667"
   version="1.1"
   id="svg1"
   xml:space="preserve"
   sodipodi:docname="Financial_stmt.svg"
   inkscape:version="1.3.2 (091e20e, 2023-11-25, custom)"
   xmlns:inkscape="http://www.inkscape.org/namespaces/inkscape"
   xmlns:sodipodi="http://sodipodi.sourceforge.net/DTD/sodipodi-0.dtd"
   xmlns="http://www.w3.org/2000/svg"
   xmlns:svg="http://www.w3.org/2000/svg"><sodipodi:namedview
     id="namedview1"
     pagecolor="#ffffff"
     bordercolor="#000000"
     borderopacity="0.25"
     inkscape:showpageshadow="2"
     inkscape:pageopacity="0.0"
     inkscape:pagecheckerboard="0"
     inkscape:deskcolor="#d1d1d1"
     inkscape:document-units="px"
     inkscape:zoom="12.90797"
     inkscape:cx="156.60866"
     inkscape:cy="47.761188"
     inkscape:window-width="2400"
     inkscape:window-height="1271"
     inkscape:window-x="2391"
     inkscape:window-y="230"
     inkscape:window-maximized="1"
     inkscape:current-layer="layer1"
     showguides="true"><sodipodi:guide
       position="26.58059,14.149391"
       orientation="1,0"
       id="guide1"
       inkscape:locked="false" /><sodipodi:guide
       position="51.885311,3.4108324"
       orientation="1,0"
       id="guide2"
       inkscape:locked="false" /></sodipodi:namedview><defs
     id="defs1" /><g
     inkscape:label="Layer 1"
     inkscape:groupmode="layer"
     id="layer1"><path
       style="color:#000000;fill:#666666;stroke-width:1;stroke-linecap:round;stroke-linejoin:round;-inkscape-stroke:none;paint-order:stroke fill markers"
       d="m 29.318463,14.250843 v 0.295815 h 9.515548 a 5.1566058,5.1566058 0 0 1 -0.0018,-0.02417 5.1566058,5.1566058 0 0 1 0.01957,-0.271643 z"
       id="path30" /><path
       style="color:#000000;fill:#666666;stroke-width:1;stroke-linecap:round;stroke-linejoin:round;-inkscape-stroke:none;paint-order:stroke fill markers"
       d="m 48.699473,12.427615 a 5.1566058,5.1566058 0 0 1 0.06677,0.155965 v -0.155965 z"
       id="path29" /><path
       style="color:#000000;fill:#666666;stroke-width:1;stroke-linecap:round;stroke-linejoin:round;-inkscape-stroke:none;paint-order:stroke fill markers"
       d="m 29.318463,12.427615 v 0.294089 h 9.852224 a 5.1566058,5.1566058 0 0 1 0.109353,-0.294089 z"
       id="path28" /><path
       style="color:#000000;fill:#666666;stroke-width:1;stroke-linecap:round;stroke-linejoin:round;-inkscape-stroke:none;paint-order:stroke fill markers"
       d="m 47.336655,10.60266 a 5.1566058,5.1566058 0 0 1 0.319411,0.295815 h 1.110167 V 10.60266 Z"
       id="path27" /><path
       style="color:#000000;fill:#666666;stroke-width:1;stroke-linecap:round;stroke-linejoin:round;-inkscape-stroke:none;paint-order:stroke fill markers"
       d="m 29.318463,10.60266 v 0.295815 h 11.020518 a 5.1566058,5.1566058 0 0 1 0.303296,-0.295815 z"
       id="path26" /><path
       style="color:#000000;fill:#666666;stroke-width:1;stroke-linecap:round;stroke-linejoin:round;-inkscape-stroke:none;paint-order:stroke fill markers"
       d="M 29.318463,8.7800077 V 9.075822 h 19.44777 V 8.7800077 Z"
       id="path25" /><path
       style="color:#000000;fill:#666666;stroke-width:1;stroke-linecap:round;stroke-linejoin:round;-inkscape-stroke:none;paint-order:stroke fill markers"
       d="M 29.318463,6.9573548 V 7.250867 h 19.44777 V 6.9573548 Z"
       id="path24" /><path
       style="color:#000000;fill:#3b74cd;fill-opacity:1;stroke-width:1;stroke-linecap:round;stroke-linejoin:round;-inkscape-stroke:none;paint-order:stroke fill markers"
       d="m 29.318463,4.3197558 v 2.0715754 h 19.44777 V 4.3197558 Z"
       id="path4" /><path
       id="rect3"
       style="color:#000000;fill:#666666;stroke-width:1;stroke-linecap:round;stroke-linejoin:round;-inkscape-stroke:none;paint-order:stroke fill markers"
       d="m 28.462099,2.8832911 c -0.339743,0 -0.617528,0.2777846 -0.617528,0.6175266 V 15.881851 c 0,0.339742 0.277785,0.618101 0.617528,0.618101 h 10.774772 a 5.1566058,5.1566058 0 0 1 -0.1105,-0.295813 H 28.462097 c -0.181595,0 -0.321712,-0.140693 -0.321713,-0.322288 V 3.5008177 c 0,-0.1815959 0.140118,-0.3217123 0.321713,-0.3217123 h 21.160499 c 0.181596,0 0.321712,0.1401164 0.321712,0.3217123 V 15.881851 c 0,0.181595 -0.140116,0.322288 -0.321712,0.322288 h -0.771764 a 5.1566058,5.1566058 0 0 1 -0.109921,0.295813 h 0.881687 c 0.339743,0 0.617527,-0.278359 0.617527,-0.618101 V 3.5008177 c 0,-0.339742 -0.277784,-0.6175266 -0.617527,-0.6175266 z" /><circle
       style="fill:none;fill-opacity:1;stroke:#666666;stroke-width:0.264583;stroke-linecap:round;stroke-linejoin:round;stroke-dasharray:none;stroke-opacity:1;paint-order:stroke fill markers"
       id="path11"
       cx="43.988754"
       cy="14.522585"
       r="5.1566057" /><path
       style="fill:#3b74cd;fill-opacity:1;stroke:none;stroke-width:0.264583;stroke-linecap:round;stroke-linejoin:round;stroke-dasharray:none;stroke-opacity:1;paint-order:stroke fill markers"
       d="m 40.383296,15.264338 v 1.452021 h 0.883989 v -1.452021 z"
       id="path21" /><path
       style="fill:#666666;fill-opacity:1;stroke:none;stroke-width:0.264583;stroke-linecap:round;stroke-linejoin:round;stroke-dasharray:none;stroke-opacity:1;paint-order:stroke fill markers"
       d="m 41.924522,14.313588 v 2.402771 h 0.88399 v -2.402771 z"
       id="path20" /><path
       style="fill:#3b74cd;fill-opacity:1;stroke:none;stroke-width:0.264583;stroke-linecap:round;stroke-linejoin:round;stroke-dasharray:none;stroke-opacity:1;paint-order:stroke fill markers"
       d="m 46.441156,13.125152 v 3.591207 h 0.88399 v -3.591207 z"
       id="path19" /><path
       style="fill:#3b74cd;fill-opacity:1;stroke:none;stroke-width:0.264583;stroke-linecap:round;stroke-linejoin:round;stroke-dasharray:none;stroke-opacity:1;paint-order:stroke fill markers"
       d="m 43.537688,13.065874 v 3.650485 h 0.883989 v -3.650485 z"
       id="path18" /><path
       style="fill:#666666;fill-opacity:1;stroke:none;stroke-width:0.264583;stroke-linecap:round;stroke-linejoin:round;stroke-dasharray:none;stroke-opacity:1;paint-order:stroke fill markers"
       d="m 45.043232,12.382739 v 4.33362 h 0.883989 v -4.33362 z"
       id="rect13" /><path
       id="path22"
       style="color:#000000;fill:#666666;stroke-width:1;stroke-linecap:round;stroke-linejoin:round;-inkscape-stroke:none;paint-order:stroke fill markers"
       d="M 50.191205,4.1022298 V 4.398044 H 50.9129 c 0.181596,0 0.321712,0.1401166 0.321712,0.3217124 V 17.100789 c 0,0.181595 -0.140116,0.322288 -0.321712,0.322288 h -2.781229 c -0.03361,0.0997 -0.07027,0.198354 -0.109921,0.295814 h 2.891152 c 0.339742,0 0.617527,-0.27836 0.617527,-0.618102 V 4.7197564 c 0,-0.3397416 -0.277785,-0.6175266 -0.617527,-0.6175266 z M 29.134874,16.560957 v 0.539832 c 0,0.339742 0.277784,0.618102 0.617526,0.618102 h 10.070957 c -0.03985,-0.09746 -0.0767,-0.196105 -0.1105,-0.295814 h -9.960458 c -0.181595,0 -0.321711,-0.140693 -0.321712,-0.322288 v -0.539832 z"
       sodipodi:nodetypes="ccssssccssssccssccsscc" /></g></svg>
