<?xml version="1.0" encoding="UTF-8" standalone="no"?>
<!-- Created with Inkscape (http://www.inkscape.org/) -->

<svg
   width="300"
   height="80"
   viewBox="0 0 79.374998 21.166667"
   version="1.1"
   id="svg1"
   xml:space="preserve"
   sodipodi:docname="Geography.svg"
   inkscape:version="1.3.2 (091e20e, 2023-11-25, custom)"
   xmlns:inkscape="http://www.inkscape.org/namespaces/inkscape"
   xmlns:sodipodi="http://sodipodi.sourceforge.net/DTD/sodipodi-0.dtd"
   xmlns="http://www.w3.org/2000/svg"
   xmlns:svg="http://www.w3.org/2000/svg"><sodipodi:namedview
     id="namedview1"
     pagecolor="#ffffff"
     bordercolor="#000000"
     borderopacity="0.25"
     inkscape:showpageshadow="2"
     inkscape:pageopacity="0.0"
     inkscape:pagecheckerboard="0"
     inkscape:deskcolor="#d1d1d1"
     inkscape:document-units="px"
     inkscape:zoom="2.2915119"
     inkscape:cx="332.09516"
     inkscape:cy="83.132888"
     inkscape:window-width="2400"
     inkscape:window-height="1271"
     inkscape:window-x="2391"
     inkscape:window-y="230"
     inkscape:window-maximized="1"
     inkscape:current-layer="layer1" /><defs
     id="defs1" /><g
     inkscape:label="Layer 1"
     inkscape:groupmode="layer"
     id="layer1"><path
       style="color:#000000;fill:#000000;fill-opacity:0;stroke-linecap:round;stroke-linejoin:round;-inkscape-stroke:none;paint-order:stroke fill markers"
       d="m 51.806233,1.8187065 h 13.225948 c 0.442524,0 0.798779,0.3562557 0.798779,0.7987796 V 19.34748 c 0,0.442524 -0.356255,0.798779 -0.798779,0.798779 H 51.806233 c -0.442523,0 -0.798779,-0.356255 -0.798779,-0.798779 V 2.6174861 c 0,-0.4425239 0.356256,-0.7987796 0.798779,-0.7987796 z"
       id="path13" /><path
       style="fill:#3b74cd;fill-opacity:1;stroke-width:0.999998"
       d="m 37.071869,20.822372 c -2.782487,-0.72909 -4.846858,-2.233978 -6.434825,-4.690867 -1.374122,-2.126038 -1.931125,-5.372677 -1.345353,-7.8418173 0.947815,-3.995252 3.977433,-7.0435474 8.054945,-8.10460521 1.051401,-0.27359733 3.657156,-0.23758379 4.811564,0.0664988 4.838155,1.27441691 8.064523,5.41787211 8.050752,10.33915571 -0.0061,2.1662 -0.587809,4.162158 -1.67552,5.748648 -0.480261,0.700498 -0.50596,0.95826 -0.123019,1.234098 0.586711,0.422621 1.903897,2.015937 1.903897,2.303022 0,0.164358 -0.182017,0.515147 -0.404483,0.779531 -0.635256,0.754959 -1.307318,0.676833 -2.24888,-0.261427 -0.409607,-0.408169 -0.924206,-0.907782 -1.14356,-1.110251 l -0.398825,-0.368125 -0.529881,0.404163 c -0.735695,0.561142 -2.432225,1.307561 -3.595166,1.581761 -1.353507,0.31913 -3.534137,0.28378 -4.921646,-0.07978 z m 12.331774,-0.412919 c 0.157145,-0.142214 0.285715,-0.390587 0.285715,-0.551941 0,-0.167847 -0.939838,-1.243025 -2.196556,-2.512867 l -2.196561,-2.219496 0.360773,-0.770269 c 0.992014,-2.117993 -0.02262,-4.7761109 -2.203169,-5.7718232 -1.03554,-0.4728623 -2.665657,-0.4597549 -3.607419,0.029006 -2.024891,1.0508935 -2.976036,3.2048532 -2.351397,5.3249932 0.356823,1.211128 1.504629,2.357254 2.804365,2.800262 0.858407,0.292582 2.28206,0.22293 3.159617,-0.154584 l 0.780125,-0.335601 2.229452,2.210445 c 1.226195,1.215745 2.323921,2.210446 2.439394,2.210446 0.115466,0 0.338517,-0.116357 0.495661,-0.258571 z m -9.564126,-4.781558 c -2.396434,-1.43173 -2.290321,-4.944235 0.187868,-6.2191055 1.950547,-1.0034284 4.284542,-0.053517 5.04163,2.0518825 0.625011,1.738087 -0.289411,3.72644 -2.053772,4.465798 -0.276514,0.115875 -0.912379,0.21068 -1.413042,0.21068 -0.749046,0 -1.061286,-0.09021 -1.762684,-0.509255 z m 3.32546,-0.383532 c 0.26187,-0.153445 0.694501,-0.549166 0.961402,-0.879381 0.442776,-0.547808 0.485275,-0.699328 0.485275,-1.730055 0,-0.937535 -0.06403,-1.223115 -0.376498,-1.679134 -0.668171,-0.9751306 -1.31979,-1.3024777 -2.592718,-1.3024777 -0.989067,0 -1.184624,0.051374 -1.704295,0.4477477 -0.742226,0.566122 -1.148645,1.231722 -1.277735,2.092569 -0.195603,1.304374 0.750759,2.86757 1.987814,3.283459 0.688991,0.231634 1.918269,0.11796 2.516755,-0.232728 z m -3.787262,3.497183 v -1.77024 L 38.688168,16.47611 c -0.39768,-0.285591 -0.882635,-0.495196 -1.145722,-0.495196 -0.728874,0 -2.226889,0.341371 -2.226889,0.507469 0,0.272679 0.941567,1.926156 1.443813,2.535472 0.590419,0.716279 1.761615,1.487931 2.258345,1.487931 0.354662,0 0.36,-0.02625 0.36,-1.77024 z m 1.472883,1.618326 c 0.219762,-0.08355 0.712606,-0.440467 1.095216,-0.793144 0.719321,-0.663044 1.75404,-2.128024 1.606934,-2.27513 -0.04594,-0.04596 -0.353811,-0.0085 -0.684109,0.08319 -0.737324,0.204737 -1.68883,0.215437 -2.347948,0.0264 -0.347948,-0.09979 -0.515261,-0.08816 -0.561993,0.03906 -0.04919,0.133974 -0.01789,2.763898 0.03608,3.032478 0.01807,0.0899 0.484152,0.02844 0.855791,-0.112855 z m -4.586045,-1.114063 c -0.422587,-0.524427 -0.932025,-1.336221 -1.132087,-1.803987 -0.331916,-0.776072 -0.400325,-0.843556 -0.78189,-0.77131 -0.551181,0.104362 -1.847285,0.717438 -1.847285,0.873792 0,0.172333 0.991482,1.023518 1.769067,1.51874 0.696645,0.443675 2.243435,1.126417 2.565873,1.13256 0.107064,0.0021 -0.151092,-0.425368 -0.573678,-0.949795 z m 7.416363,0.493118 c 1.074673,-0.487282 1.946283,-1.043856 1.946283,-1.242821 0,-0.138924 -1.101316,-1.265297 -1.237149,-1.265297 -0.05025,0 -0.263464,0.324339 -0.47376,0.720752 -0.210301,0.396414 -0.691265,1.064327 -1.068814,1.484251 -0.814385,0.905793 -0.637565,0.9701 0.83344,0.303115 z M 32.993519,16.623916 c 0.546711,-0.247861 1.124352,-0.494527 1.283646,-0.548147 0.198432,-0.06679 0.256549,-0.183163 0.184573,-0.369588 -0.249794,-0.647013 -0.586192,-2.398366 -0.682461,-3.553074 L 33.675065,10.90321 h -2.031079 -2.031079 l 0.05492,0.781186 c 0.08604,1.223492 0.7295,3.030545 1.517944,4.26289 0.396676,0.620008 0.742037,1.127286 0.76747,1.127286 0.02545,0 0.493547,-0.202795 1.040264,-0.450656 z m 15.236785,-0.844785 c 0.587927,-0.868302 1.256086,-2.804942 1.399247,-4.055676 l 0.102831,-0.898363 h -1.642388 -1.642381 l 0.07853,1.377376 c 0.06693,1.173867 0.02958,1.488017 -0.252699,2.126191 l -0.331237,0.748814 0.740856,0.761596 c 0.40747,0.418877 0.811167,0.740876 0.897097,0.715552 0.08593,-0.02533 0.378494,-0.374294 0.650144,-0.77549 z M 36.530786,15.568787 c 0.453547,-0.05535 0.854758,-0.149378 0.891576,-0.208948 0.03685,-0.05957 -0.08705,-0.418768 -0.275269,-0.798217 -0.359633,-0.725051 -0.475873,-2.417418 -0.22713,-3.306878 l 0.120155,-0.429652 h -1.421545 -1.421545 l 0.100456,1.0546 c 0.115661,1.214263 0.342698,2.511443 0.589817,3.369996 0.142825,0.496221 0.226292,0.581872 0.495307,0.508264 0.177948,-0.04869 0.694625,-0.133814 1.148178,-0.189165 z m -4.584941,-5.368643 h 1.760546 L 33.807934,8.8330701 C 33.899285,7.6031499 34.192817,6.0173182 34.455048,5.3370137 34.526646,5.1512577 34.436624,5.0536625 34.120445,4.974309 33.882538,4.9145981 33.30756,4.6795168 32.842717,4.451906 L 31.997555,4.0380686 31.626903,4.5021365 c -0.913578,1.1438403 -1.697245,3.0446021 -1.922634,4.6632929 -0.145948,1.0481326 -0.09942,1.2574526 0.249688,1.1234856 0.127236,-0.04882 1.023582,-0.08877 1.991888,-0.08877 z m 5.791384,-0.5161297 c 0.17186,-0.2679634 0.606983,-0.7008717 0.966936,-0.9620194 l 0.654459,-0.4748133 0.0096,-1.1768866 0.0096,-1.1768872 -1.679547,-0.1949253 C 36.774457,5.5912733 35.794838,5.4632418 35.521276,5.4139685 35.048219,5.3287615 35.015558,5.3553199 34.853536,5.9570356 34.633639,6.7736752 34.423845,7.998021 34.295677,9.2127145 l -0.101879,0.9655335 0.521838,0.05001 c 0.287014,0.0275 1.013987,0.02592 1.615496,-0.0035 1.028513,-0.05034 1.112275,-0.08254 1.406133,-0.5407273 z m 11.952129,0.1332279 c 0,-0.6641755 -0.336793,-1.9880404 -0.787541,-3.0956617 -0.438779,-1.0781984 -1.373721,-2.6032007 -1.600533,-2.610651 -0.06745,-0.00224 -0.652445,0.2237932 -1.29999,0.5022415 -0.99101,0.4261441 -1.165539,0.555963 -1.102739,0.8202446 0.290309,1.2216324 0.572403,2.8499106 0.572403,3.3039796 0,0.2974642 0.107265,0.748273 0.238368,1.0017968 l 0.238368,0.460952 h 1.870835 1.870829 z M 44.893731,8.2118513 C 44.715003,7.0490074 44.342698,5.5100881 44.222064,5.4355337 c -0.0744,-0.045982 -0.790558,0.022664 -1.59145,0.1525544 -0.800892,0.1298898 -1.71982,0.2364459 -2.042063,0.2367914 l -0.585884,6.495e-4 v 0.8593034 c 0,0.4726172 0.0176,0.9120334 0.03903,0.9764814 0.02149,0.064448 0.579832,0.092588 1.240775,0.062532 1.290524,-0.058684 2.384447,0.2064224 3.090434,0.7489467 0.476134,0.3658958 0.60706,0.3003046 0.520799,-0.2609204 z M 39.377715,2.8570046 c 0,-1.3494201 -0.06196,-2.34355512 -0.146067,-2.34355512 -0.291011,0 -1.03809,0.33845335 -1.599386,0.72458562 -0.866409,0.5960227 -2.511612,3.2099134 -2.207008,3.5064806 0.177422,0.1727432 1.826317,0.4149701 2.975983,0.43718 l 0.976478,0.018867 z m 3.320039,2.1613187 C 43.560802,4.886959 43.90859,4.7695347 43.90859,4.6095087 43.90859,4.2545868 42.987525,2.6198861 42.402349,1.9362388 41.902265,1.352002 40.24733,0.37293951 40.06614,0.55413153 40.006304,0.61396592 39.950638,4.34215 39.997931,5.1224412 c 0.0085,0.1402933 1.462449,0.084222 2.699823,-0.1041179 z M 35.177226,3.5991301 c 0.479363,-0.9531184 1.222882,-2.0182519 1.698284,-2.4328835 0.424252,-0.37002339 -0.721051,-0.075846 -1.829819,0.4700001 -1.231019,0.6060287 -2.637259,1.8133445 -2.394675,2.0559294 0.154747,0.1547458 1.667135,0.8398475 1.920166,0.8698214 0.06321,0.00749 0.33593,-0.4258022 0.606044,-0.9628674 z M 46.068263,4.0111712 C 46.525678,3.8099358 46.85656,3.5751319 46.803568,3.4893851 46.569316,3.1103542 44.752772,1.8577092 43.831789,1.4401161 42.348165,0.76740789 42.249155,0.83734577 43.097719,1.9586413 c 0.406436,0.5370652 0.899275,1.3492146 1.095204,1.8047771 0.399604,0.9291462 0.343395,0.9217206 1.87534,0.2477528 z"
       id="path1"
       sodipodi:nodetypes="sssssssssssscsssssscsssssscsssssssssssssssssssscsssssssssssssssssssssssssssssssscccssssssscccsscssssssscccssssscsssscsssscscccsssscscccssssssscccssssscscssssssssscsssssssssssssssssss" /><path
       style="fill:#4d4d4d;fill-opacity:1;stroke-width:0.999998"
       d="m 39.875786,11.086854 0.249971,-0.333799 c 0.377939,-0.504687 0.866804,-0.743417 1.52395,-0.744197 0.459127,-5.59e-4 0.601568,0.03694 0.943221,0.248156 0.249428,0.154211 0.497002,0.401785 0.651217,0.651216 0.329896,0.533597 0.336321,1.18029 0.0186,1.869785 l -0.215669,0.467979 -1.436567,2.000357 c -0.603724,-0.861965 -1.290165,-1.700953 -1.820778,-2.95016 -0.143593,-0.338073 -0.08081,-0.816464 0.08608,-1.209337 z m 2.292683,2.959693 c 1.034017,-1.538098 1.218814,-2.149704 0.87702,-2.902539 -0.328739,-0.724077 -1.383299,-1.070739 -2.117618,-0.696118 -0.61711,0.314827 -1.006327,1.01495 -0.893972,1.608057 0.124318,0.656211 1.429735,2.679217 1.609478,2.679217 0.03419,0 0.270474,-0.309877 0.525092,-0.688617 z m -0.812885,-1.178802 c -0.237594,-0.05747 -0.538302,-0.352836 -0.667226,-0.65536 -0.142565,-0.334511 -0.07256,-0.681516 0.204426,-1.013294 0.412867,-0.494544 1.319725,-0.402942 1.612313,0.16286 0.28422,0.54961 0.05279,1.219052 -0.501437,1.45063 -0.279957,0.116976 -0.363253,0.124066 -0.648076,0.05517 z m 0.787299,-0.510284 c 0.366642,-0.36665 0.287179,-0.879331 -0.173212,-1.117406 -0.487867,-0.252288 -1.066234,0.09229 -1.066234,0.635245 0,0.335826 0.395949,0.722461 0.739869,0.722461 0.17695,0 0.335565,-0.0763 0.499577,-0.2403 z"
       id="path2"
       sodipodi:nodetypes="csssssccscsssssssssssssssss" /></g></svg>
