<?xml version="1.0" encoding="UTF-8" standalone="no"?>
<!-- Created with Inkscape (http://www.inkscape.org/) -->

<svg
   width="48"
   height="48"
   viewBox="0 0 12.7 12.7"
   version="1.1"
   id="svg1"
   xml:space="preserve"
   inkscape:version="1.3.2 (091e20e, 2023-11-25, custom)"
   sodipodi:docname="Mine_Icon.svg"
   xmlns:inkscape="http://www.inkscape.org/namespaces/inkscape"
   xmlns:sodipodi="http://sodipodi.sourceforge.net/DTD/sodipodi-0.dtd"
   xmlns="http://www.w3.org/2000/svg"
   xmlns:svg="http://www.w3.org/2000/svg"><sodipodi:namedview
     id="namedview1"
     pagecolor="#ffffff"
     bordercolor="#000000"
     borderopacity="0.25"
     inkscape:showpageshadow="2"
     inkscape:pageopacity="0.0"
     inkscape:pagecheckerboard="0"
     inkscape:deskcolor="#d1d1d1"
     inkscape:document-units="px"
     inkscape:zoom="1.4820191"
     inkscape:cx="347.49891"
     inkscape:cy="308.70048"
     inkscape:window-width="2400"
     inkscape:window-height="1271"
     inkscape:window-x="2391"
     inkscape:window-y="230"
     inkscape:window-maximized="1"
     inkscape:current-layer="layer1" /><defs
     id="defs1" /><g
     inkscape:label="Layer 1"
     inkscape:groupmode="layer"
     id="layer1"><path
       id="path1"
       style="color:#000000;fill:#000000;stroke-width:0.999999;stroke-linecap:round;stroke-linejoin:round;-inkscape-stroke:none;paint-order:stroke fill markers"
       d="m 4.693272,0.75620846 a 0.15538575,0.15538575 0 0 0 -0.09529,0.05128 L 3.634505,1.9199635 a 0.15537021,0.15537021 0 0 0 0.01487,0.219097 0.15537021,0.15537021 0 0 0 0.22031,-0.01608 l 0.902786,-1.041163 1.270576,0.278574 0.329252,0.716766 a 0.15537021,0.15537021 0 0 0 0.205441,0.07677 0.15537021,0.15537021 0 0 0 0.07677,-0.206351 L 6.293092,1.1598015 a 0.15538575,0.15538575 0 0 0 -0.107727,-0.0874 L 4.748191,0.75832246 a 0.15538575,0.15538575 0 0 0 -0.05492,-0.0021 z M 9.614744,1.5807025 a 0.15538575,0.15538575 0 0 0 -0.114707,0.0264 l -1.018403,0.713125 a 0.15537021,0.15537021 0 0 0 -0.03914,0.216972 0.15537021,0.15537021 0 0 0 0.216669,0.03793 l 0.968029,-0.67671 1.036914,0.169633 0.634226,1.604687 a 0.15537021,0.15537021 0 0 0 0.201799,0.08709 0.15537021,0.15537021 0 0 0 0.0874,-0.2018 l -0.667608,-1.68601 a 0.15538575,0.15538575 0 0 0 -0.119259,-0.0965 z m -7.355808,0.638474 a 0.15538575,0.15538575 0 0 0 -0.09346,0.04734 l -1.083949,1.140084 a 0.15537021,0.15537021 0 0 0 0.0058,0.2191 0.15537021,0.15537021 0 0 0 0.219097,-0.0047 l 1.024169,-1.076968 0.919779,0.205441 0.367183,0.879719 a 0.15538575,0.15538575 0 0 0 0.256726,0.0458 l 0.501311,-0.538028 a 0.15537021,0.15537021 0 0 0 -0.0082,-0.219094 0.15537021,0.15537021 0 0 0 -0.220007,0.0082 L 3.811164,3.2870735 3.506189,2.5542225 a 0.15538575,0.15538575 0 0 0 -0.110155,-0.09164 l -1.08395,-0.240945 a 0.15538575,0.15538575 0 0 0 -0.0531,-0.0024 z m 5.448881,0.05462 a 0.15538575,0.15538575 0 0 0 -0.04977,0.0052 l -1.408346,0.389943 a 0.15538575,0.15538575 0 0 0 -0.09407,0.07344 l -0.167508,0.295871 a 0.15538575,0.15538575 0 0 0 -0.01487,0.03793 L 5.85278,3.5486625 a 0.15537021,0.15537021 0 0 0 0.11228,0.189357 0.15537021,0.15537021 0 0 0 0.189357,-0.112277 l 0.114707,-0.451847 0.125025,-0.222741 1.232947,-0.34048 0.625122,1.029936 a 0.15537021,0.15537021 0 0 0 0.213331,0.05279 0.15537021,0.15537021 0 0 0 0.0525,-0.214549 l -0.685814,-1.12977 a 0.15538575,0.15538575 0 0 0 -0.124418,-0.07526 z m -7.323641,1.612267 c -0.210051,0 -0.384177,0.17413 -0.384177,0.384175 v 0.98624 c 0,0.21005 0.174126,0.38297 0.384177,0.38297 H 0.51527 a 0.15537021,0.15537021 0 0 0 -0.0073,0.0231 l 0.438193,4.6887195 c -0.0044,0.1375 0.02428,0.28552 0.110154,0.41513 0.09089,0.13717 0.251644,0.2444 0.458828,0.26825 a 0.15538575,0.15538575 0 0 0 0.01821,0 h 0.09073 a 0.15537021,0.15537021 0 0 0 0.153549,-0.15597 0.15537021,0.15537021 0 0 0 -0.155977,-0.15477 l -0.07101,10e-4 c -0.128513,-0.0148 -0.190867,-0.0627 -0.235179,-0.12958 -0.04431,-0.0669 -0.06484,-0.16195 -0.05948,-0.25005 a 0.15538575,0.15538575 0 0 0 0,-0.0231 L 0.818402,5.6392185 h 11.14632 l -0.372646,4.6519995 c -0.04606,0.11977 -0.06915,0.22369 -0.103479,0.27524 -0.03763,0.0565 -0.08305,0.0996 -0.285553,0.11349 a 0.15537021,0.15537021 0 0 0 -0.144446,0.16629 0.15537021,0.15537021 0 0 0 0.165081,0.14476 c 0.259172,-0.0177 0.433694,-0.11814 0.523161,-0.25248 0.08947,-0.13435 0.104986,-0.26445 0.142321,-0.35444 a 0.15538575,0.15538575 0 0 0 0.01123,-0.047 l 0.375983,-4.6978195 h 0.04036 c 0.210052,0 0.383267,-0.17291 0.383267,-0.38296 v -0.986245 c 0,-0.210045 -0.173215,-0.384175 -0.383267,-0.384175 z m 0,0.310742 h 11.932553 c 0.04328,0 0.07344,0.03018 0.07344,0.07343 v 0.986233 c 0,0.0433 -0.03016,0.0722 -0.07344,0.0722 H 0.384176 c -0.04328,0 -0.07344,-0.029 -0.07344,-0.0722 v -0.986233 c 0,-0.04328 0.03016,-0.07343 0.07344,-0.07343 z m 2.9578,5.240103 c -0.690949,0 -1.254494,0.56264 -1.254494,1.2535895 0,0.69095 0.563545,1.25479 1.254494,1.25479 0.576484,0 1.064334,-0.39239 1.210188,-0.92372 l 2.985414,-0.0143 a 0.15537021,0.15537021 0 0 0 0.154763,-0.15598 0.15537021,0.15537021 0 0 0 -0.155977,-0.15506 l -2.940199,0.0143 c 1.05e-4,-0.007 5.87e-4,-0.0133 5.87e-4,-0.02 0,-0.6909395 -0.563848,-1.2535795 -1.254796,-1.2535795 z m 6.10526,0 c -0.690949,0 -1.253583,0.56264 -1.253583,1.2535895 0,0.69095 0.562634,1.25479 1.253583,1.25479 0.690947,0 1.254796,-0.56384 1.254796,-1.25479 0,-0.6909495 -0.563849,-1.2535895 -1.254796,-1.2535895 z m -6.10526,0.31105 c 0.523012,0 0.944056,0.4195195 0.944056,0.9425395 0,0.52301 -0.421044,0.94405 -0.944056,0.94405 -0.523012,0 -0.943753,-0.42104 -0.943753,-0.94405 0,-0.52302 0.420741,-0.9425395 0.943753,-0.9425395 z m 6.10526,0 c 0.523012,0 0.943752,0.4195195 0.943752,0.9425395 0,0.52301 -0.42074,0.94405 -0.943752,0.94405 -0.523013,0 -0.942843,-0.42104 -0.942843,-0.94405 0,-0.52302 0.41983,-0.9425395 0.942843,-0.9425395 z" /></g></svg>
