<?xml version="1.0" encoding="UTF-8" standalone="no"?>
<!-- Created with Inkscape (http://www.inkscape.org/) -->

<svg
   width="48"
   height="48"
   viewBox="0 0 12.7 12.7"
   version="1.1"
   id="svg1"
   xml:space="preserve"
   sodipodi:docname="NonGaapStmt.svg"
   inkscape:version="1.3.2 (091e20e, 2023-11-25, custom)"
   xmlns:inkscape="http://www.inkscape.org/namespaces/inkscape"
   xmlns:sodipodi="http://sodipodi.sourceforge.net/DTD/sodipodi-0.dtd"
   xmlns="http://www.w3.org/2000/svg"
   xmlns:svg="http://www.w3.org/2000/svg"><sodipodi:namedview
     id="namedview1"
     pagecolor="#ffffff"
     bordercolor="#000000"
     borderopacity="0.25"
     inkscape:showpageshadow="2"
     inkscape:pageopacity="0.0"
     inkscape:pagecheckerboard="0"
     inkscape:deskcolor="#d1d1d1"
     inkscape:document-units="px"
     inkscape:zoom="2.9752244"
     inkscape:cx="13.27631"
     inkscape:cy="-7.2263457"
     inkscape:window-width="2400"
     inkscape:window-height="1271"
     inkscape:window-x="2391"
     inkscape:window-y="230"
     inkscape:window-maximized="1"
     inkscape:current-layer="layer1" /><defs
     id="defs1" /><g
     inkscape:label="Layer 1"
     inkscape:groupmode="layer"
     id="layer1"><g
       id="g1"
       transform="matrix(0.59384739,0,0,0.59493667,-3.0115883,2.858467)"
       style="stroke-width:1.68239"><path
         d="M 11.282918,1.9781367 H 10.96944 L 10.433987,0.8316944 V 1.9781367 H 10.135762 V 0.3078312 h 0.38888 l 0.460049,0.9568644 V 0.3078312 h 0.298227 z m 1.27763,-0.6293088 q 0,0.310728 -0.137253,0.4902102 -0.136404,0.1783603 -0.383797,0.1783603 -0.247392,0 -0.384644,-0.1783603 -0.136405,-0.1794822 -0.136405,-0.4902102 0,-0.312972 0.137252,-0.4913333 0.138099,-0.1783603 0.383797,-0.1783603 0.249087,0 0.384645,0.1794822 0.136405,0.1794823 0.136405,0.4902114 z M 12.185223,1.655069 q 0.02965,-0.048234 0.04406,-0.1155413 0.01525,-0.06843 0.01525,-0.1884569 0,-0.1110545 -0.01525,-0.186212 -0.01526,-0.075162 -0.04236,-0.1200292 -0.02711,-0.04599 -0.06523,-0.065064 -0.03812,-0.019074 -0.08218,-0.019074 -0.04406,0 -0.07879,0.015708 -0.03389,0.015708 -0.06524,0.06282 -0.02796,0.043747 -0.04491,0.1200292 -0.0161,0.076284 -0.0161,0.1918208 0,0.1032006 0.01441,0.1794822 0.01441,0.075162 0.04237,0.1211512 0.02711,0.043747 0.0644,0.063942 0.03812,0.020196 0.08642,0.020196 0.04151,0 0.07879,-0.017952 0.03812,-0.019074 0.0644,-0.06282 z m 1.549593,0.3230677 h -0.306699 v -0.624822 q 0,-0.076284 -0.0059,-0.1514381 -0.0059,-0.076284 -0.02034,-0.1121765 -0.01695,-0.041502 -0.04999,-0.060576 -0.03219,-0.019074 -0.09065,-0.019074 -0.04151,0 -0.08472,0.017952 -0.04236,0.017952 -0.09234,0.05721 V 1.9781356 H 12.779131 V 0.718395 h 0.305005 v 0.1390985 q 0.08134,-0.084127 0.15589,-0.1290029 0.07541,-0.044868 0.166907,-0.044868 0.154196,0 0.240614,0.1189072 0.08726,0.1189072 0.08726,0.3555996 z m 0.876041,-0.5810734 h -0.64644 V 1.0739957 h 0.64644 z m 1.369978,0.4857234 q -0.08472,0.043747 -0.224517,0.087504 -0.139794,0.042624 -0.278741,0.042624 -0.321948,0 -0.504104,-0.2310836 -0.182155,-0.2322045 -0.182155,-0.6405264 0,-0.3892526 0.183849,-0.6270659 0.18385,-0.2389364 0.512578,-0.2389364 0.124543,0 0.237225,0.030283 0.112683,0.029161 0.250782,0.1177852 V 0.814866 h -0.03643 Q 15.915612,0.791304 15.869852,0.74868 15.824102,0.704934 15.781742,0.67464 15.732602,0.638747 15.666518,0.612942 15.601288,0.587147 15.527572,0.587147 q -0.08642,0 -0.156739,0.033649 -0.07031,0.033649 -0.126237,0.1032006 -0.05338,0.067308 -0.08472,0.1716305 -0.0305,0.1032006 -0.0305,0.2389353 0,0.2770762 0.110988,0.4240264 0.110987,0.1469513 0.327879,0.1469513 0.01864,0 0.04067,-0.00116 0.02288,-0.00116 0.04151,-0.00339 V 1.373433 h -0.25163 V 1.0582181 h 0.582051 z m 1.457244,0.095347 h -0.336353 l -0.08726,-0.337647 h -0.467674 l -0.08726,0.3376502 h -0.32788 l 0.465979,-1.6703055 h 0.374478 z M 16.935669,1.3342411 16.780625,0.7352193 16.625581,1.3342411 Z m 1.849513,0.6438924 H 18.44883 L 18.36157,1.6404833 h -0.467674 l -0.08726,0.3376502 h -0.32788 l 0.465979,-1.6703054 h 0.374477 z M 18.282771,1.3342411 18.127728,0.7352193 17.972684,1.3342411 Z m 1.724971,-0.499185 q 0,0.1121764 -0.02965,0.219866 -0.02965,0.1065676 -0.08472,0.1794822 -0.07541,0.098713 -0.1686,0.1491953 -0.09234,0.050478 -0.230448,0.050478 H 19.29183 V 1.9781324 H 18.966491 V 0.307827 h 0.535453 q 0.120307,0 0.202489,0.028049 0.08303,0.026917 0.146571,0.081894 0.07625,0.066186 0.116072,0.1693866 0.04066,0.1032006 0.04066,0.247909 z m -0.336352,0.010055 q 0,-0.070674 -0.0288,-0.1211511 Q 19.61378,0.67236 19.57566,0.652164 19.52482,0.625247 19.47653,0.623003 19.42824,0.619613 19.347751,0.619613 h -0.05592 V 1.11992 h 0.09319 q 0.08303,0 0.136405,-0.013464 0.05422,-0.013464 0.09065,-0.053844 0.03135,-0.035893 0.04491,-0.085249 0.01441,-0.050478 0.01441,-0.1222721 z"
         id="text6"
         style="font-weight:bold;font-size:2.17047px;line-height:3.00526px;font-family:Sans;-inkscape-font-specification:'Sans Bold';letter-spacing:0px;fill:#b3b3b3;stroke-width:0.890266;stroke-linecap:round;stroke-linejoin:round;paint-order:stroke fill markers"
         aria-label="Non-GAAP" /><rect
         style="fill:#000000;fill-opacity:0;stroke:#3b74cd;stroke-width:0.890266;stroke-linecap:round;stroke-linejoin:round;stroke-dasharray:none;stroke-opacity:1;paint-order:stroke fill markers"
         id="rect6"
         width="15.692669"
         height="19.399122"
         x="7.3861346"
         y="-4.3597283"
         ry="0.84548235" /><path
         id="rect7"
         style="color:#000000;fill:#3b74cd;fill-opacity:1;stroke-width:1.68239;stroke-linecap:round;stroke-linejoin:round;-inkscape-stroke:none;paint-order:stroke fill markers"
         d="M 9.020604,-2.965048 A 0.15446937,0.15535198 0 0 0 8.86635,-2.8099139 V 13.489695 a 0.15446937,0.15535198 0 0 0 0.154254,0.155133 h 12.5166 a 0.15446937,0.15535198 0 0 0 0.155059,-0.155133 v -1.960516 a 3.6429414,3.6637568 0 0 1 -0.309312,0.232802 v 1.57177 H 9.174857 V -2.6539702 h 12.208094 v 8.2866341 a 3.6429414,3.6637568 0 0 1 0.309312,0.227139 V -2.8099139 A 0.15446937,0.15535198 0 0 0 21.537204,-2.965048 Z" /><path
         id="rect8"
         style="fill:#4d4d4d;fill-opacity:1;stroke:none;stroke-width:1.3354;stroke-linecap:round;stroke-linejoin:round;stroke-dasharray:none;paint-order:stroke fill markers"
         d="m 11.192611,6.3496779 c -0.168182,0 -0.303678,0.136271 -0.303678,0.305415 0,0.169144 0.135496,0.305212 0.303678,0.305212 h 5.416747 a 3.3160108,3.3349581 0 0 1 0.530738,-0.610627 z m 0,1.690902 c -0.168182,0 -0.303678,0.136272 -0.303678,0.305415 0,0.169143 0.135496,0.305211 0.303678,0.305211 h 4.847201 a 3.3160108,3.3349581 0 0 1 0.0903,-0.610626 z m 0,1.691104 c -0.168182,0 -0.303678,0.13607 -0.303678,0.3052131 0,0.169142 0.135496,0.305413 0.303678,0.305413 h 5.197537 A 3.3160108,3.3349581 0 0 1 16.150423,9.7316839 Z m 0,1.6909031 c -0.168182,0 -0.303678,0.136272 -0.303678,0.305414 0,0.169143 0.135496,0.305212 0.303678,0.305212 h 7.200006 a 3.3160108,3.3349581 0 0 1 -1.13789,-0.610626 z" /><ellipse
         style="fill:none;fill-opacity:1;stroke:#999999;stroke-width:0.890266;stroke-linecap:round;stroke-linejoin:round;stroke-dasharray:none;paint-order:stroke fill markers"
         id="circle11"
         cx="19.342449"
         cy="8.8391876"
         rx="3.0824888"
         ry="3.1001017" /><path
         style="fill:none;fill-opacity:1;stroke:#3b74cd;stroke-width:0.890266;stroke-linecap:round;stroke-linejoin:round;stroke-dasharray:none;stroke-opacity:1;paint-order:stroke fill markers"
         d="m 17.567686,8.7922189 1.074203,1.12731 2.522033,-2.63039"
         id="path11"
         sodipodi:nodetypes="ccc" /><path
         id="path12"
         style="color:#000000;fill:#3b74cd;stroke-width:1.68239;stroke-linecap:round;stroke-linejoin:round;-inkscape-stroke:none;paint-order:stroke fill markers"
         d="m 22.776268,-3.6976292 v 0.5601058 h 0.684377 c 0.318142,0 0.566759,0.2463904 0.566759,0.5644817 V 15.417768 c 0,0.318091 -0.248617,0.564482 -0.566759,0.564482 H 10.020917 c -0.318142,0 -0.566759,-0.246391 -0.566759,-0.564482 V 14.705602 H 8.893964 v 0.712166 c 0,0.618702 0.508154,1.124588 1.126953,1.124588 h 13.439728 c 0.618799,0 1.126953,-0.505886 1.126953,-1.124588 V -2.5730417 c 0,-0.6187013 -0.508154,-1.1245875 -1.126953,-1.1245875 z"
         sodipodi:nodetypes="ccssssssccssssssc" /></g></g></svg>
