<?xml version="1.0" encoding="UTF-8" standalone="no"?>
<!-- Created with Inkscape (http://www.inkscape.org/) -->

<svg
   width="300"
   height="80"
   viewBox="0 0 79.374998 21.166667"
   version="1.1"
   id="svg1"
   xml:space="preserve"
   sodipodi:docname="Public_Guidance.svg"
   inkscape:version="1.3.2 (091e20e, 2023-11-25, custom)"
   xmlns:inkscape="http://www.inkscape.org/namespaces/inkscape"
   xmlns:sodipodi="http://sodipodi.sourceforge.net/DTD/sodipodi-0.dtd"
   xmlns="http://www.w3.org/2000/svg"
   xmlns:svg="http://www.w3.org/2000/svg"><sodipodi:namedview
     id="namedview1"
     pagecolor="#ffffff"
     bordercolor="#000000"
     borderopacity="0.25"
     inkscape:showpageshadow="2"
     inkscape:pageopacity="0.0"
     inkscape:pagecheckerboard="0"
     inkscape:deskcolor="#d1d1d1"
     inkscape:document-units="px"
     inkscape:zoom="3.8024733"
     inkscape:cx="168.57449"
     inkscape:cy="72.978816"
     inkscape:window-width="2400"
     inkscape:window-height="1271"
     inkscape:window-x="2391"
     inkscape:window-y="230"
     inkscape:window-maximized="1"
     inkscape:current-layer="layer1" /><defs
     id="defs1" /><g
     inkscape:label="Layer 1"
     inkscape:groupmode="layer"
     id="layer1"><path
       id="path2"
       style="fill:#3b74cd;fill-opacity:1;stroke-width:1"
       d="m 39.877411,0.55665523 c -0.460946,-0.002549 -0.880892,0.14482316 -1.539957,0.47904057 -0.53858,0.2731171 -1.184152,0.4975468 -1.435572,0.4986775 l -0.457853,0.00258 v 1.3999145 c 0,1.3463666 -0.0201,1.4200232 -0.519348,1.9192626 -0.447373,0.4473704 -0.505585,0.6027885 -0.42168,1.1198283 0.05356,0.3300181 0.277943,0.7937977 0.498161,1.0309448 0.220218,0.237148 0.451972,0.6482969 0.514697,0.9136394 0.06273,0.2653423 0.333509,0.6881572 0.602548,0.9394775 0.269039,0.2513202 0.489375,0.5681559 0.489375,0.7043498 0,0.1387559 -0.756602,0.6891328 -1.720825,1.2516028 -0.946414,0.552085 -1.912662,1.231728 -2.147672,1.511019 -0.579364,0.688536 -1.052115,2.027394 -1.193726,3.381189 l -0.117305,1.121895 h 5.249808 c 5.248455,0 5.249292,-3.56e-4 5.249292,-0.355017 0,-0.805801 -0.396498,-1.635889 -1.021126,-2.137854 -0.720087,-0.578677 -0.802012,-0.967621 -0.299206,-1.422652 0.261893,-0.237011 0.408025,-0.268095 0.623217,-0.132808 0.439801,0.276488 0.895804,1.699316 0.911056,2.84272 l 0.01395,1.039213 h 1.361158 c 0.748632,0 1.602094,0.04818 1.896008,0.10697 l 0.534334,0.106454 -0.119889,-0.979269 C 46.761152,15.359074 46.56098,14.439384 46.381924,13.854034 45.959186,12.472056 44.845699,11.323973 43.135094,10.506952 41.734679,9.8380833 41.646408,9.5946477 42.511359,8.7788923 42.925838,8.3879888 43.093236,8.085734 43.093236,7.729344 c 0,-0.275142 0.111942,-0.5931191 0.24908,-0.7069336 0.392426,-0.3256799 0.335831,-1.8655607 -0.08268,-2.2443075 -0.226344,-0.2048386 -0.33228,-0.5119051 -0.33228,-0.9622151 0,-1.5662676 -0.796992,-2.7345401 -2.115116,-3.10058592 C 40.445467,0.61344815 40.15398,0.55818457 39.877411,0.55665523 Z m -0.12299,0.61081547 c 0.49041,-0.013402 1.003261,0.1106376 1.517737,0.3731038 0.733488,0.3741973 1.002802,0.9344473 1.117245,2.3233724 0.06525,0.7919524 0.171644,1.1383876 0.396875,1.2975952 0.383906,0.2713611 0.424973,1.3275744 0.05736,1.4686442 -0.151043,0.057959 -0.249081,0.3085799 -0.249081,0.6366536 0,0.5863733 -0.542873,1.4174845 -0.926041,1.4174845 -0.173195,0 -0.237195,0.2201873 -0.237195,0.8133871 v 0.8123535 l 1.235583,0.587044 c 2.14724,1.019719 3.212047,2.329457 3.505729,4.312398 l 0.117306,0.789099 h -1.266073 c -1.165573,0 -1.265556,-0.02683 -1.265556,-0.341064 0,-0.187658 -0.120869,-0.872873 -0.268717,-1.522904 -0.418437,-1.839731 -1.381764,-2.485184 -2.315621,-1.551327 -0.653877,0.653877 -0.551244,1.310907 0.340031,2.177128 0.498991,0.484966 0.748275,0.86793 0.748275,1.149284 v 0.42168 h -4.571296 -4.571298 v -0.634587 c 0,-1.002971 0.472499,-2.333598 1.053683,-2.967777 0.293494,-0.320259 1.317542,-1.045626 2.275313,-1.611788 1.740215,-1.028684 1.740548,-1.029619 1.791622,-1.7306439 0.04347,-0.5966146 0.0044,-0.7022827 -0.264583,-0.7022827 -0.408122,0 -0.808606,-0.449459 -0.961699,-1.0800374 -0.0666,-0.2742756 -0.334273,-0.744585 -0.594795,-1.0448975 -0.260523,-0.3003133 -0.473873,-0.6235311 -0.473873,-0.7177856 0,-0.3749061 0.362507,-0.8139038 0.671277,-0.8139038 0.300467,0 0.326078,-0.1197329 0.326078,-1.4960327 0,-1.4777524 0.005,-1.4960327 0.408244,-1.4960327 0.224502,0 0.683802,-0.1869157 1.020609,-0.4154785 0.424582,-0.2881287 0.892451,-0.4392835 1.382861,-0.4526855 z" /><path
       id="rect4"
       style="color:#000000;fill:#666666;stroke-linecap:round;stroke-linejoin:round;-inkscape-stroke:none;paint-order:stroke fill markers;fill-opacity:1"
       d="M 29.369267 17.463017 A 0.26460996 0.26460996 0 0 0 29.10365 17.726566 L 29.10365 20.9026 A 0.26460996 0.26460996 0 0 0 29.369267 21.16615 L 33.564359 21.16615 L 33.564359 20.636466 L 29.632816 20.636466 L 29.632816 17.992183 L 49.742183 17.992183 L 49.742183 20.636466 L 45.81064 20.636466 L 45.81064 21.16615 L 50.005733 21.16615 A 0.26460996 0.26460996 0 0 0 50.27135 20.9026 L 50.27135 17.726566 A 0.26460996 0.26460996 0 0 0 50.005733 17.463017 L 29.369267 17.463017 z " /></g></svg>
