<?xml version="1.0" encoding="UTF-8" standalone="no"?>
<!-- Created with Inkscape (http://www.inkscape.org/) -->

<svg
   xmlns:dc="http://purl.org/dc/elements/1.1/"
   xmlns:cc="http://creativecommons.org/ns#"
   xmlns:rdf="http://www.w3.org/1999/02/22-rdf-syntax-ns#"
   xmlns:svg="http://www.w3.org/2000/svg"
   xmlns="http://www.w3.org/2000/svg"
   xmlns:sodipodi="http://sodipodi.sourceforge.net/DTD/sodipodi-0.dtd"
   xmlns:inkscape="http://www.inkscape.org/namespaces/inkscape"
   width="175"
   height="45"
   viewBox="0 0 175 45.000001"
   id="svg7271"
   version="1.1"
   inkscape:version="0.91 r13725"
   sodipodi:docname="virtua_white_logo.svg">
  <defs
     id="defs7273" />
  <sodipodi:namedview
     id="base"
     pagecolor="#ffffff"
     bordercolor="#666666"
     borderopacity="1.0"
     inkscape:pageopacity="0.0"
     inkscape:pageshadow="2"
     inkscape:zoom="0.35"
     inkscape:cx="-52.142857"
     inkscape:cy="520"
     inkscape:document-units="px"
     inkscape:current-layer="layer1"
     showgrid="false"
     units="px"
     inkscape:window-width="1366"
     inkscape:window-height="705"
     inkscape:window-x="-8"
     inkscape:window-y="-8"
     inkscape:window-maximized="1" />
  <metadata
     id="metadata7276">
    <rdf:RDF>
      <cc:Work
         rdf:about="">
        <dc:format>image/svg+xml</dc:format>
        <dc:type
           rdf:resource="http://purl.org/dc/dcmitype/StillImage" />
        <dc:title></dc:title>
      </cc:Work>
    </rdf:RDF>
  </metadata>
  <g
     inkscape:label="Layer 1"
     inkscape:groupmode="layer"
     id="layer1"
     transform="translate(0,-1007.3622)">
    <g
       id="g7285"
       transform="translate(-1066.7857,763.21428)">
      <path
         id="path599"
         d="m 1079.6568,245.81784 8.043,16.34375 8.0371,-16.34375 -2.5899,0 -5.4472,8.78516 -5.4512,-8.78516 -2.5918,0 z m -0.9902,0.41016 -1.836,1.83593 2.3614,10.06446 -10.0684,-2.35742 -1.8301,1.83007 17.2422,5.87305 -5.8691,-17.24609 z m 18.0644,0 -5.8672,17.24218 17.2403,-5.86914 -1.8321,-1.83593 -10.0664,2.35742 2.3614,-10.0625 -1.836,-1.83203 z m 135.7813,9.21875 -9.5098,20.74218 3.1289,0 6.2598,-13.97851 6.1289,13.97851 3.168,0 -9.1758,-20.74218 z m -117.0352,1.22265 9.0528,20.9961 8.9453,-20.9961 -3.168,0 -5.7188,13.52344 -5.9433,-13.52344 -3.168,0 z m 27.4961,0 0,19.51953 2.9082,0 0,-19.51953 -2.9082,0 z m 14.7988,0 0,19.51953 2.9043,0 0,-16.75781 2.4043,0 c 2.6758,0 4.0176,1.00196 4.0176,3.00391 0,2.1289 -1.3818,3.19922 -4.1308,3.19922 l -0.918,0 0,2.5625 0.5176,0 6.6601,7.99218 3.5547,0 -7.1133,-8.32421 c 1.2695,-0.27344 2.3096,-0.91407 3.086,-1.91016 0.7763,-0.99121 1.1718,-2.18066 1.1718,-3.5625 0,-1.76758 -0.6259,-3.19043 -1.8711,-4.26953 -1.1279,-0.97168 -2.9638,-1.45313 -5.5078,-1.45313 l -4.7754,0 z m 20.1797,0 0,2.76172 5.2344,0 0,16.75781 2.9121,0 0,-16.75781 5.2285,0 0,-2.76172 -13.375,0 z m 22.5782,0 0,12.56641 c 0,2.05566 0.6259,3.75684 1.9003,5.08984 1.4112,1.48438 3.1504,2.21485 5.2207,2.21485 2.0704,0 3.8126,-0.73047 5.2383,-2.21485 1.2598,-1.333 1.8848,-3.03418 1.8848,-5.08984 l 0,-12.56641 -2.8945,0 0,11.7461 c 0,1.7041 -0.2744,2.93066 -0.8164,3.6875 -0.8106,1.11816 -1.9376,1.67578 -3.4122,1.67578 -1.4648,0 -2.5986,-0.55762 -3.4043,-1.67578 -0.5419,-0.77637 -0.8046,-2.00782 -0.8046,-3.6875 l 0,-11.7461 -2.9121,0 z m -133.6465,1.92774 0,2.59179 8.7851,5.44532 -8.7851,5.44922 0,2.59375 16.3418,-8.04297 -16.3418,-8.03711 z m 17.6308,11.2207 -17.2402,5.86914 1.832,1.83008 10.0684,-2.35742 -2.3653,10.06445 1.836,1.83594 5.8691,-17.24219 z m 6.3672,0 5.8711,17.24609 1.8359,-1.83593 -2.3593,-10.0625 10.0644,2.35742 1.8301,-1.83008 -17.2422,-5.875 z m -3.1816,1.31836 -8.043,16.3418 2.5918,0 5.4512,-8.78321 5.4472,8.78321 2.5899,0 -8.0371,-16.3418 z"
         style="fill:#ffffff;fill-opacity:1;fill-rule:nonzero;stroke:none"
         inkscape:connector-curvature="0" />
    </g>
  </g>
</svg>
