<?xml version="1.0" encoding="UTF-8" standalone="no"?>
<svg
   width="311.80099"
   height="90"
   viewBox="0 0 311.801 89.999995"
   id="svg4154"
   version="1.1"
   inkscape:version="1.3.2 (091e20e, 2023-11-25, custom)"
   sodipodi:docname="Virtua_Orange_White_logo.svg"
   xmlns:inkscape="http://www.inkscape.org/namespaces/inkscape"
   xmlns:sodipodi="http://sodipodi.sourceforge.net/DTD/sodipodi-0.dtd"
   xmlns="http://www.w3.org/2000/svg"
   xmlns:svg="http://www.w3.org/2000/svg"
   xmlns:rdf="http://www.w3.org/1999/02/22-rdf-syntax-ns#"
   xmlns:cc="http://creativecommons.org/ns#"
   xmlns:dc="http://purl.org/dc/elements/1.1/">
  <metadata
     id="metadata4198">
    <rdf:RDF>
      <cc:Work
         rdf:about="">
        <dc:format>image/svg+xml</dc:format>
        <dc:type
           rdf:resource="http://purl.org/dc/dcmitype/StillImage" />
      </cc:Work>
    </rdf:RDF>
  </metadata>
  <sodipodi:namedview
     pagecolor="#ffffff"
     bordercolor="#666666"
     borderopacity="1"
     objecttolerance="10"
     gridtolerance="10"
     guidetolerance="10"
     inkscape:pageopacity="0"
     inkscape:pageshadow="2"
     inkscape:window-width="1920"
     inkscape:window-height="1001"
     id="namedview4196"
     showgrid="false"
     inkscape:zoom="3.0339865"
     inkscape:cx="171.88606"
     inkscape:cy="37.079928"
     inkscape:window-x="-9"
     inkscape:window-y="-9"
     inkscape:window-maximized="1"
     inkscape:current-layer="svg4154"
     inkscape:showpageshadow="2"
     inkscape:pagecheckerboard="0"
     inkscape:deskcolor="#d1d1d1" />
  <defs
     id="defs4156">
    <style
       id="style4158">.a{fill:none;}.b{fill:#fff;}.c{clip-path:url(#a);}.d{fill:url(#b);}</style>
    <clipPath
       id="a">
      <path
         class="a"
         d="m 125.623,109.243 -3.264,3.267 -17.953,-4.21 4.2,17.955 -3.267,3.269 L 94.868,98.767 Z M 83.553,87.45 52.8,76.976 l 3.267,-3.267 17.958,4.2 -4.212,-17.95 3.269,-3.269 z m -10.509,42.068 -3.272,-3.269 4.212,-17.95 -17.954,4.206 -3.269,-3.269 30.755,-10.474 z m 21.792,-42.073 10.471,-30.758 3.269,3.269 -4.207,17.955 17.953,-4.21 3.267,3.269 z m 8.7,42.825 H 98.909 L 89.193,114.6 79.472,130.27 H 74.849 L 89.193,101.116 Z M 81.219,93.092 52.065,107.434 v -4.621 L 67.733,93.09 52.065,83.374 V 78.753 Z M 103.532,55.957 H 98.909 L 89.193,71.628 79.472,55.957 h -4.623 l 14.344,29.154 z"
         transform="translate(-52.065,-55.957)"
         id="path4161" />
    </clipPath>
    <radialGradient
       id="b"
       cx="83.064003"
       cy="84.059998"
       r="42.160999"
       gradientUnits="userSpaceOnUse">
      <stop
         offset="0"
         stop-color="#ffc600"
         id="stop4164" />
      <stop
         offset="1"
         stop-color="#f36815"
         id="stop4166" />
    </radialGradient>
  </defs>
  <g
     transform="translate(-0.001,15.687)"
     id="g4190">
    <g
       class="c"
       id="g4192"
       clip-path="url(#a)">
      <path
         class="d"
         d="M 134.3,95.625 A 42.156,42.156 0 1 1 92.143,53.471 42.155,42.155 0 0 1 134.3,95.625 Z"
         transform="translate(-55.131,-59.624)"
         id="path4194"
         style="fill:url(#b)"
         inkscape:connector-curvature="0" />
    </g>
  </g>
  <path
     inkscape:connector-curvature="0"
     style="fill:#f9f9f9;fill-opacity:1;fill-rule:nonzero;stroke:none"
     d="m 295.47864,33.518694 -17.08755,37.267761 h 5.62055 l 11.24498,-25.119119 11.01128,25.119119 h 5.69455 z m -210.27385,2.19289 16.26958,37.72345 16.06707,-37.72345 h -5.69456 L 101.57955,60.012657 90.899344,35.711584 Z m 49.40472,0 v 35.074871 h 5.22325 V 35.711584 Z m 26.58755,0 v 35.074871 h 5.22325 V 56.42159 51.817638 40.681682 h 4.3157 c 4.80368,0 7.21751,1.794636 7.21751,5.386899 0,3.82639 -2.48674,5.749057 -7.42004,5.749057 h -1.65149 v 4.603952 h 0.9309 l 11.96557,14.364865 h 6.38399 L 175.37891,55.825506 c 2.28593,-0.490988 4.15056,-1.632702 5.54654,-3.427538 1.39599,-1.777485 2.10333,-3.918125 2.10333,-6.403573 0,-3.175862 -1.12255,-5.731308 -3.35363,-7.673121 -2.02916,-1.739993 -5.33186,-2.60969 -9.90121,-2.60969 z m 36.25115,0 v 4.970098 h 9.41433 v 30.104773 h 5.21936 V 40.681682 h 9.39873 v -4.970098 z m 40.57077,0 V 58.29121 c -1e-5,3.696763 1.12224,6.748382 3.40816,9.141495 2.54268,2.667325 5.65995,3.988523 9.37925,3.988523 3.7193,0 6.85527,-1.321198 9.41042,-3.988523 2.26847,-2.393113 3.39649,-5.444732 3.39649,-9.141495 V 35.711584 h -5.20768 v 21.111052 c 0,3.063784 -0.48875,5.260463 -1.46843,6.621547 -1.45083,2.011811 -3.48342,3.010936 -6.1308,3.010936 -2.62993,0 -4.66548,-0.999125 -6.11132,-3.010936 -0.97968,-1.395983 -1.44895,-3.610212 -1.44895,-6.621547 V 35.711584 Z"
     id="path116"
     sodipodi:nodetypes="cccccccccccccccccccccccccssscccccccscscccccccccccscscsccscscscc" />
  <path
     d="m 96.71593,8.7140487 q 0,1.001829 -0.35418,1.8619843 -0.34406,0.850036 -0.97147,1.477443 -0.7792,0.7792 -1.84174,1.17386 -1.06255,0.38454 -2.68167,0.38454 h -2.00365 v 5.616309 H 86.85956 V 4.1602843 h 4.08827 q 1.35601,0 2.29712,0.2327482 0.94111,0.2226282 1.66972,0.7083633 0.86015,0.5768099 1.32565,1.4369659 0.47561,0.860155 0.47561,2.175687 z m -2.08461,0.05059 q 0,-0.779199 -0.27323,-1.356009 -0.27322,-0.57681 -0.82979,-0.941112 -0.48574,-0.3137 -1.11315,-0.4452524 -0.61728,-0.1416734 -1.56851,-0.1416734 h -1.98342 v 6.0210891 h 1.68995 q 1.21434,0 1.9733,-0.212509 0.75896,-0.222629 1.23458,-0.698244 0.47561,-0.485735 0.66788,-1.0220673 0.20239,-0.536332 0.20239,-1.204218 z m 13.70177,4.8168713 q 0,2.762616 -1.41672,4.361494 -1.41674,1.598877 -3.79481,1.598877 -2.39832,0 -3.81505,-1.598877 -1.4066,-1.598878 -1.4066,-4.361494 0,-2.762617 1.4066,-4.3614953 1.41673,-1.608996 3.81505,-1.608996 2.37807,0 3.79481,1.608996 1.41672,1.5988783 1.41672,4.3614953 z m -1.96318,0 q 0,-2.195926 -0.86015,-3.258471 -0.86017,-1.0726653 -2.3882,-1.0726653 -1.54828,0 -2.40843,1.0726653 -0.85004,1.062545 -0.85004,3.258471 0,2.12509 0.86015,3.228113 0.86016,1.092903 2.39832,1.092903 1.51792,0 2.37807,-1.082783 0.87028,-1.092904 0.87028,-3.238233 z m 19.12581,-5.6567883 -2.94477,11.3034553 h -1.76079 l -2.90429,-8.712868 -2.88405,8.712868 h -1.75066 L 110.27602,7.9247217 h 1.98343 l 2.07449,8.7533473 2.82333,-8.7533473 h 1.56852 l 2.89417,8.7533473 1.96318,-8.7533473 z m 12.20409,5.8490583 h -8.32833 q 0,1.042306 0.31371,1.821506 0.3137,0.76908 0.86015,1.264934 0.52622,0.485735 1.24469,0.728602 0.7286,0.242868 1.59888,0.242868 1.15362,0 2.31736,-0.455376 1.17386,-0.465496 1.66971,-0.910753 h 0.10115 v 2.074493 q -0.96136,0.404779 -1.96318,0.678004 -1.00183,0.273226 -2.10485,0.273226 -2.81322,0 -4.39186,-1.517921 -1.57863,-1.528042 -1.57863,-4.331137 0,-2.772736 1.5078,-4.4019723 1.51792,-1.629235 3.98707,-1.629235 2.287,0 3.52157,1.335771 1.2447,1.3357703 1.2447,3.7948033 z m -1.85186,-1.457204 q -0.01,-1.497683 -0.75897,-2.3173613 -0.73871,-0.819677 -2.25664,-0.819677 -1.52804,0 -2.43879,0.9006333 -0.90064,0.900634 -1.02207,2.236405 z m 11.78919,-2.3173613 h -0.10115 q -0.42501,-0.101199 -0.8298,-0.141672 -0.39466,-0.05059 -0.9411,-0.05059 -0.88039,0 -1.70008,0.3946593 -0.81967,0.38454 -1.57863,1.001829 v 8.024744 h -1.90247 V 7.9247297 h 1.90247 v 1.669713 q 1.13338,-0.910753 1.99353,-1.285173 0.87028,-0.38454 1.77092,-0.38454 0.49584,0 0.71847,0.03035 0.22263,0.02024 0.66789,0.09107 z m 11.25285,3.7745653 h -8.32832 q 0,1.042306 0.3137,1.821506 0.3137,0.76908 0.86015,1.264934 0.52622,0.485735 1.24469,0.728602 0.72861,0.242868 1.59888,0.242868 1.15363,0 2.31737,-0.455376 1.17386,-0.465496 1.6697,-0.910753 h 0.10115 v 2.074493 q -0.96136,0.404779 -1.96318,0.678004 -1.00183,0.273226 -2.10485,0.273226 -2.81322,0 -4.39186,-1.517921 -1.57863,-1.528042 -1.57863,-4.331137 0,-2.772736 1.5078,-4.4019723 1.51792,-1.629235 3.98707,-1.629235 2.287,0 3.52159,1.335771 1.24469,1.3357703 1.24469,3.7948033 z m -1.85186,-1.457204 q -0.01,-1.497683 -0.75897,-2.3173613 -0.73871,-0.819677 -2.25663,-0.819677 -1.52805,0 -2.4388,0.9006333 -0.90063,0.900634 -1.02206,2.236405 z m 13.90416,6.911601 h -1.90247 v -1.183978 q -0.81967,0.708363 -1.71019,1.103023 -0.89051,0.394659 -1.93281,0.394659 -2.0239,0 -3.21801,-1.558398 -1.18398,-1.558401 -1.18398,-4.321017 0,-1.436966 0.40479,-2.560227 0.4149,-1.1232633 1.11314,-1.9125823 0.68813,-0.76908 1.59888,-1.173859 0.92087,-0.404779 1.90246,-0.404779 0.89051,0 1.57863,0.19227 0.68814,0.182151 1.44709,0.57681 v -4.897819 h 1.90247 z m -1.90247,-2.782856 V 9.9587367 q -0.76908,-0.344061 -1.37624,-0.475615 -0.60717,-0.131553 -1.32566,-0.131553 -1.59887,0 -2.48939,1.1131423 -0.89051,1.113143 -0.89051,3.157277 0,2.013775 0.68812,3.066201 0.68812,1.042307 2.20605,1.042307 0.80956,0 1.63936,-0.354182 0.82978,-0.364302 1.54827,-0.930993 z m 22.88014,-2.954887 q 0,1.416727 -0.40478,2.550108 -0.39466,1.133382 -1.07266,1.902462 -0.71849,0.799439 -1.57865,1.204218 -0.86015,0.394659 -1.89234,0.394659 -0.96134,0 -1.67983,-0.232748 -0.71848,-0.222628 -1.41673,-0.607168 l -0.12143,0.526212 h -1.78103 V 3.4822797 h 1.90246 v 5.626429 q 0.79945,-0.657766 1.70008,-1.072665 0.90063,-0.425018 2.0239,-0.425018 2.00365,0 3.15727,1.538161 1.16374,1.5381603 1.16374,4.3412553 z m -1.96318,0.05059 q 0,-2.023895 -0.66788,-3.0662 -0.66789,-1.0524263 -2.15545,-1.0524263 -0.8298,0 -1.67984,0.364301 -0.85003,0.3541823 -1.57864,0.9208723 v 6.476465 q 0.80956,0.364301 1.38637,0.505974 0.58693,0.141673 1.32566,0.141673 1.57864,0 2.46915,-1.032187 0.90063,-1.042306 0.90063,-3.258472 z m 14.653,-5.6163093 -6.5979,15.4726803 h -2.03401 l 2.10485,-4.715676 -4.50316,-10.7570043 h 2.06436 l 3.47098,8.3789273 3.50134,-8.3789273 z"
     id="text1"
     style="font-size:18.6667px;line-height:37.3333px;font-family:Sans;-inkscape-font-specification:Sans;letter-spacing:0px;fill:#f2f2f2;stroke-width:1;stroke-linecap:round;stroke-linejoin:round;paint-order:stroke fill markers"
     aria-label="Powered by" />
  <rect
     style="fill:#d38d5f;stroke-width:1.06498;stroke-linecap:round;stroke-linejoin:round;paint-order:stroke fill markers"
     id="rect1"
     width="92.792534"
     height="2.9906328"
     x="218.42911"
     y="14.205506"
     ry="0.26911196"
     transform="matrix(1,0,-0.47183938,0.88168452,0,0)" />
</svg>
