<svg width="36" height="27" viewBox="0 0 36 27" fill="none" xmlns="http://www.w3.org/2000/svg">
<path d="M35.1562 24.75H2.25V0.84375C2.25 0.632812 2.10938 0.421875 1.96875 0.28125C1.82812 0.140625 1.61719 0 1.40625 0H0.84375C0.5625 0 0.351562 0.140625 0.210938 0.28125C0.0703125 0.421875 0 0.632812 0 0.84375V26.1562C0 26.4375 0.0703125 26.6484 0.210938 26.7891C0.351562 26.9297 0.5625 27 0.84375 27H35.1562C35.3672 27 35.5781 26.9297 35.7188 26.7891C35.8594 26.6484 36 26.4375 36 26.1562V25.5938C36 25.3828 35.8594 25.1719 35.7188 25.0312C35.5781 24.8906 35.3672 24.75 35.1562 24.75ZM33.75 4.00781C33.75 3.375 33.4688 2.8125 33.0469 2.39062C32.625 1.96875 32.0625 1.6875 31.4297 1.6875H24.8203C24.1172 1.6875 23.5547 1.96875 23.1328 2.39062C22.7109 2.88281 22.5 3.44531 22.5 4.00781C22.5 4.64062 22.7109 5.20312 23.2031 5.625L25.6641 8.15625L20.25 13.5703L16.0312 9.35156C15.8906 9.35156 15.8203 9.28125 15.6797 9.28125C15.5391 9.28125 15.4688 9.35156 15.3984 9.42188L6.1875 19.1953C6.11719 19.3359 6.11719 19.4062 6.11719 19.4766C6.11719 19.6172 6.11719 19.6875 6.25781 19.7578L7.24219 20.7422C7.3125 20.8828 7.38281 20.8828 7.52344 20.8828C7.66406 20.8828 7.73438 20.8125 7.875 20.7422L15.75 12.3047L19.9688 16.4531C19.9688 16.5938 20.0391 16.5938 20.1797 16.5938C20.3203 16.5938 20.3906 16.5938 20.5312 16.4531L27.2812 9.77344L29.8125 12.2344C30.2344 12.7266 30.7969 12.9375 31.4297 12.9375C32.0625 12.9375 32.625 12.7266 33.0469 12.3047C33.4688 11.8828 33.75 11.3203 33.75 10.6172V4.00781ZM31.7109 4.00781V10.6172C31.7109 10.7578 31.6406 10.8984 31.5 10.8984C31.3594 10.9688 31.2891 10.9688 31.2188 10.8281L24.6094 4.21875C24.4688 4.14844 24.4688 4.07812 24.5391 3.9375C24.5391 3.79688 24.6797 3.72656 24.8203 3.72656H31.4297C31.5703 3.72656 31.7109 3.86719 31.7109 4.00781Z" fill="#C51F21"/>
</svg>
