<svg width="48" height="56" viewBox="0 0 48 56" fill="none" xmlns="http://www.w3.org/2000/svg">
<g id="doc-excel">
<path id="Shape" fill-rule="evenodd" clip-rule="evenodd" d="M47.0778 14.486L33.5258 0.937988C33.1428 0.554988 32.7758 0.424988 32.0708 0.424988H3.93876C1.89976 0.424988 0.176758 2.14799 0.176758 4.18699V51.812C0.176758 53.851 1.89976 55.575 3.93876 55.575H44.0598C46.0988 55.575 47.8218 53.851 47.8218 51.812V16.401C47.8218 15.812 47.5318 15.062 47.0778 14.486ZM2.09976 4.07499C2.09976 3.09499 2.95876 2.23499 3.93976 2.23499H30.8798V13.712C30.8798 15.632 32.3858 17.137 34.3088 17.137H45.7858L45.7728 52.436C45.5288 53.143 44.8088 53.655 44.0568 53.655H3.93876C2.95876 53.655 2.09876 52.795 2.09876 51.814V4.07499H2.09976ZM32.9178 3.12799V13.824C32.9178 14.57 33.4348 15.326 34.4208 15.326H45.1138L32.9178 3.12799Z" fill="#C51F21"/>
<path id="Path" d="M31.9748 43.58L25.1108 33.469L31.1628 24.42H27.0358L23.0018 30.364L18.9668 24.42H14.8418L20.8938 33.469L14.0298 43.58H22.5018V40.974H20.0908L23.0018 36.622L27.6548 43.58H31.9748Z" fill="#C51F21"/>
</g>
</svg>
