<svg width="48" height="56" viewBox="0 0 48 56" fill="none" xmlns="http://www.w3.org/2000/svg">
<g id="doc-pdf">
<path id="Shape" fill-rule="evenodd" clip-rule="evenodd" d="M47.0778 14.486L33.5258 0.937988C33.1428 0.554988 32.7758 0.424988 32.0708 0.424988H3.93876C1.89976 0.424988 0.176758 2.14799 0.176758 4.18699V51.812C0.176758 53.851 1.89976 55.575 3.93876 55.575H44.0598C46.0988 55.575 47.8218 53.851 47.8218 51.812V16.401C47.8218 15.812 47.5318 15.062 47.0778 14.486ZM2.09976 4.07499C2.09976 3.09499 2.95876 2.23499 3.93976 2.23499H30.8798V13.712C30.8798 15.632 32.3858 17.137 34.3088 17.137H45.7858L45.7728 52.436C45.5288 53.143 44.8088 53.655 44.0568 53.655H3.93876C2.95876 53.655 2.09876 52.795 2.09876 51.814V4.07499H2.09976ZM32.9178 3.12799V13.824C32.9178 14.57 33.4348 15.326 34.4208 15.326H45.1138L32.9178 3.12799Z" fill="#C51F21"/>
<path id="Shape_2" fill-rule="evenodd" clip-rule="evenodd" d="M8.72253 46.058L8.74253 46.065L8.7568 46.0697L8.75682 46.0697C9.08434 46.1782 9.42148 46.29 9.76153 46.29C11.8285 46.29 14.2325 43.722 17.3215 38.208C21.2295 36.906 25.3425 35.957 28.9105 35.533C31.7455 37.117 35.2055 38.221 37.3315 38.221C37.6885 38.221 38.1335 38.221 38.3585 38.106C38.8215 37.991 39.1755 37.753 39.4085 37.409C39.8545 36.849 39.9955 35.833 39.7625 34.897C39.7625 34.535 39.5315 34.3 39.3075 34.073L39.2885 34.054C38.4925 33.392 36.9635 33.028 34.9815 33.028C33.4805 33.028 31.7035 33.144 29.8415 33.364L29.7185 33.289C29.1625 32.953 28.4715 32.534 27.8625 31.926L27.8615 31.924C26.1315 30.303 24.5495 27.874 23.5205 25.257C23.6255 25.027 23.6255 24.801 23.6245 24.595C23.6655 24.357 24.6335 18.734 24.4095 16.737C24.4095 16.5378 24.3712 16.4427 24.3404 16.3661L24.3395 16.364L24.3379 16.36C24.3157 16.3048 24.2975 16.26 24.2975 16.177L24.1745 15.913L24.1455 15.864C23.8065 15.302 23.3425 14.533 22.4295 14.533H21.8695C20.8075 14.533 20.0055 15.027 19.7775 15.824C19.2575 17.906 19.6365 21.056 21.0065 26.036L20.6775 26.798C20.0305 28.4652 19.1441 30.2212 18.3595 31.7754L18.3415 31.811L18.3234 31.847L18.3229 31.8479C18.1704 32.15 18.0217 32.4447 17.8775 32.732L17.7665 32.956C17.5925 33.285 17.4245 33.604 17.2615 33.914C16.4905 35.381 15.8245 36.648 15.0895 37.753L14.3285 38.186C14.0715 38.258 12.7285 39.066 12.5255 39.202C9.69053 40.901 7.79353 42.805 7.44853 44.291C7.34453 44.705 7.40553 45.326 7.93853 45.723L8.72253 46.058ZM9.79053 44.717C10.1985 43.742 11.5205 41.991 13.6285 40.214L13.644 40.1987L13.644 40.1986C13.7217 40.122 13.8767 39.9688 14.0605 39.813C12.2765 42.53 10.8765 44.14 9.79053 44.717ZM26.6465 34.036C26.5395 33.905 26.4465 33.792 26.3155 33.727C24.5845 32.246 23.2465 30.591 22.3205 28.795C21.7535 30.148 20.9855 31.782 19.9165 33.918L19.8939 33.9633C19.5136 34.7248 19.0892 35.5749 18.6685 36.327C21.3525 35.402 24.0725 34.678 26.7595 34.17C26.7195 34.125 26.6825 34.08 26.6465 34.036ZM22.5645 22.033C22.2475 20.866 22.0585 19.087 22.0585 17.97H22.0575C22.0415 17.484 22.1295 15.857 22.3185 15.805C22.7985 15.805 23.2525 17.293 23.2525 18.867C23.2525 20.132 23.0335 21.145 22.5645 22.033ZM38.9695 36.292C38.9845 36.268 39.0005 36.208 38.9785 36.121C38.9445 35.988 38.7815 35.654 37.9865 35.415C36.8755 35.081 36.4505 35.081 35.3175 35.081C34.8215 35.081 34.1635 35.081 33.5595 35.158C35.5375 36.074 36.9185 36.502 37.8955 36.502C38.2125 36.502 38.7455 36.397 38.9695 36.292Z" fill="#C51F21"/>
</g>
</svg>
