<?xml version="1.0" encoding="UTF-8" standalone="no"?>
<!-- Created with Inkscape (http://www.inkscape.org/) -->

<svg
   width="40"
   height="40"
   viewBox="0 0 10.583333 10.583333"
   version="1.1"
   id="svg1"
   inkscape:version="1.3.2 (091e20e, 2023-11-25, custom)"
   sodipodi:docname="Financial_Statement.svg"
   xmlns:inkscape="http://www.inkscape.org/namespaces/inkscape"
   xmlns:sodipodi="http://sodipodi.sourceforge.net/DTD/sodipodi-0.dtd"
   xmlns="http://www.w3.org/2000/svg"
   xmlns:svg="http://www.w3.org/2000/svg">
  <sodipodi:namedview
     id="namedview1"
     pagecolor="#ffffff"
     bordercolor="#000000"
     borderopacity="0.25"
     inkscape:showpageshadow="2"
     inkscape:pageopacity="0.0"
     inkscape:pagecheckerboard="0"
     inkscape:deskcolor="#d1d1d1"
     inkscape:document-units="px"
     inkscape:zoom="19.710487"
     inkscape:cx="31.353868"
     inkscape:cy="24.530089"
     inkscape:window-width="2400"
     inkscape:window-height="1271"
     inkscape:window-x="2391"
     inkscape:window-y="230"
     inkscape:window-maximized="1"
     inkscape:current-layer="layer1"
     showgrid="false" />
  <defs
     id="defs1" />
  <g
     inkscape:label="Layer 1"
     inkscape:groupmode="layer"
     id="layer1">
    <path
       id="rect2"
       style="fill:#000000;stroke:none;stroke-width:0.529167;stroke-linecap:round;stroke-linejoin:round;paint-order:stroke fill markers"
       d="M 0 1.8748209 L 0 10.58385 L 10.583333 10.58385 L 10.583333 1.8748209 L 0 1.8748209 z M 0.52916665 3.9222411 L 3.1853352 3.9222411 C 3.1826852 3.9354281 3.1812011 3.9490755 3.1812011 3.9630655 L 3.1812011 4.7624998 L 0.52916665 4.7624998 L 0.52916665 3.9222411 z M 3.9155232 3.9222411 L 6.8595294 3.9222411 L 6.8595294 4.7624998 L 3.9196573 4.7624998 L 3.9196573 3.9630655 C 3.9196573 3.9490745 3.9181731 3.9354281 3.9155232 3.9222411 z M 7.6377765 3.9222411 L 10.054166 3.9222411 L 10.054166 4.7624998 L 7.6377765 4.7624998 L 7.6377765 3.9222411 z M 0.52916665 5.2916665 L 3.1812011 5.2916665 L 3.1812011 6.0854165 L 0.52916665 6.0854165 L 0.52916665 5.2916665 z M 3.9196573 5.2916665 L 6.8595294 5.2916665 L 6.8595294 6.0854165 L 3.9196573 6.0854165 L 3.9196573 5.2916665 z M 7.6377765 5.2916665 L 10.054166 5.2916665 L 10.054166 6.0854165 L 7.6377765 6.0854165 L 7.6377765 5.2916665 z M 0.52916665 6.6145831 L 3.1812011 6.6145831 L 3.1812011 7.4083331 L 0.52916665 7.4083331 L 0.52916665 6.6145831 z M 3.9196573 6.6145831 L 6.8595294 6.6145831 L 6.8595294 7.4083331 L 3.9196573 7.4083331 L 3.9196573 6.6145831 z M 7.6377765 6.6145831 L 10.054166 6.6145831 L 10.054166 7.4083331 L 7.6377765 7.4083331 L 7.6377765 6.6145831 z M 0.52916665 7.9374997 L 3.1812011 7.9374997 L 3.1812011 8.7312497 L 0.52916665 8.7312497 L 0.52916665 7.9374997 z M 3.9196573 7.9374997 L 6.8595294 7.9374997 L 6.8595294 8.7312497 L 3.9196573 8.7312497 L 3.9196573 7.9374997 z M 7.6377765 7.9374997 L 10.054166 7.9374997 L 10.054166 8.7312497 L 7.6377765 8.7312497 L 7.6377765 7.9374997 z M 0.52916665 9.2604164 L 3.1812011 9.2604164 L 3.1812011 9.9942217 L 0.52916665 9.9942217 L 0.52916665 9.2604164 z M 3.9196573 9.2604164 L 6.8595294 9.2604164 L 6.8595294 9.9942217 L 3.9196573 9.9942217 L 3.9196573 9.2604164 z M 7.6377765 9.2604164 L 10.054166 9.2604164 L 10.054166 9.9942217 L 7.6377765 9.9942217 L 7.6377765 9.2604164 z " />
  </g>
</svg>
