<?xml version="1.0" encoding="UTF-8" standalone="no"?>
<!-- Created with Inkscape (http://www.inkscape.org/) -->

<svg
   width="40"
   height="40"
   viewBox="0 0 10.583333 10.583333"
   version="1.1"
   id="svg1"
   inkscape:version="1.3.2 (091e20e, 2023-11-25, custom)"
   sodipodi:docname="Library.svg"
   xml:space="preserve"
   xmlns:inkscape="http://www.inkscape.org/namespaces/inkscape"
   xmlns:sodipodi="http://sodipodi.sourceforge.net/DTD/sodipodi-0.dtd"
   xmlns="http://www.w3.org/2000/svg"
   xmlns:svg="http://www.w3.org/2000/svg"><sodipodi:namedview
     id="namedview1"
     pagecolor="#ffffff"
     bordercolor="#000000"
     borderopacity="0.25"
     inkscape:showpageshadow="2"
     inkscape:pageopacity="0.0"
     inkscape:pagecheckerboard="0"
     inkscape:deskcolor="#d1d1d1"
     inkscape:document-units="px"
     inkscape:zoom="12.798231"
     inkscape:cx="18.674455"
     inkscape:cy="20.979461"
     inkscape:window-width="2400"
     inkscape:window-height="1271"
     inkscape:window-x="2391"
     inkscape:window-y="230"
     inkscape:window-maximized="1"
     inkscape:current-layer="layer1" /><defs
     id="defs1" /><g
     inkscape:label="Layer 1"
     inkscape:groupmode="layer"
     id="layer1"><path
       id="rect4"
       style="fill:#000000;stroke:none;stroke-width:0.529168;stroke-linecap:round;stroke-linejoin:round;paint-order:stroke fill markers"
       d="M 0.98267305,2.6626266e-7 C 0.67219034,2.6626266e-7 0.42185508,0.24979162 0.42185508,0.56027424 V 9.926097 c 0,0.310482 0.25033526,0.560274 0.56081797,0.560274 H 2.1886219 c 0.3104827,0 0.560818,-0.249792 0.560818,-0.560274 V 0.56027424 C 2.7494399,0.24979162 2.4991046,2.6626266e-7 2.1886219,2.6626266e-7 Z m 3.03853435,0 C 3.7107247,2.6626266e-7 3.4609334,0.24979162 3.4609334,0.56027424 V 9.926097 c 0,0.310482 0.2497913,0.560274 0.560274,0.560274 h 1.7988602 c 0.3104826,0 0.5608179,-0.249792 0.5608179,-0.560274 V 0.56027424 C 6.3808855,0.24979162 6.1305502,2.6626266e-7 5.8200676,2.6626266e-7 Z M 8.675833,0.02230237 c -0.01898,-1.394e-5 -0.038351,0.001328 -0.057659,0.003264 L 7.4182083,0.1457803 C 7.1092834,0.17673898 6.8853931,0.45041563 6.9161375,0.75936186 L 7.8435814,10.078404 c 0.030745,0.308946 0.3041127,0.53303 0.6130375,0.502071 L 9.6565844,10.459717 C 9.9655095,10.428757 10.189399,10.155626 10.158655,9.846679 L 9.2317553,0.52709297 C 9.2029324,0.23745586 8.9605341,0.02251154 8.675833,0.02230237 Z M 0.91467855,1.1749438 H 2.2566164 c 0.094765,0 0.1713459,0.07658 0.1713459,0.1713459 0,0.094765 -0.07658,0.170802 -0.1713459,0.170802 H 0.91467855 c -0.094765,0 -0.17134588,-0.076037 -0.17134588,-0.170802 0,-0.094765 0.0765804,-0.1713459 0.17134588,-0.1713459 z m 3.10816075,0 h 1.7955964 c 0.094766,0 0.170802,0.07658 0.170802,0.1713459 0,0.094765 -0.076036,0.170802 -0.170802,0.170802 H 4.0228393 c -0.094765,0 -0.170802,-0.076037 -0.170802,-0.170802 0,-0.094765 0.076037,-0.1713459 0.170802,-0.1713459 z M 0.91467855,1.9337614 H 2.2566164 c 0.094765,0 0.1713459,0.076037 0.1713459,0.170802 0,0.094765 -0.07658,0.1713459 -0.1713459,0.1713459 H 0.91467855 c -0.094765,0 -0.17134588,-0.07658 -0.17134588,-0.1713459 0,-0.094765 0.0765804,-0.170802 0.17134588,-0.170802 z m 3.10816075,0 h 1.7955964 c 0.094766,0 0.170802,0.076037 0.170802,0.170802 0,0.094765 -0.076036,0.1713459 -0.170802,0.1713459 H 4.0228393 c -0.094765,0 -0.170802,-0.07658 -0.170802,-0.1713459 0,-0.094765 0.076037,-0.170802 0.170802,-0.170802 z M 0.91467855,2.6920352 H 2.2566164 c 0.094765,0 0.1713459,0.07658 0.1713459,0.1713458 0,0.094765 -0.07658,0.170802 -0.1713459,0.170802 H 0.91467855 c -0.094765,0 -0.17134588,-0.076037 -0.17134588,-0.170802 0,-0.094765 0.0765804,-0.1713458 0.17134588,-0.1713458 z m 3.10816075,0 h 1.7955964 c 0.094766,0 0.170802,0.07658 0.170802,0.1713458 0,0.094765 -0.076036,0.170802 -0.170802,0.170802 H 4.0228393 c -0.094765,0 -0.170802,-0.076037 -0.170802,-0.170802 0,-0.094765 0.076037,-0.1713458 0.170802,-0.1713458 z" /></g></svg>
