<svg width="34" height="23" viewBox="0 0 34 23" fill="none" xmlns="http://www.w3.org/2000/svg">
<path d="M32.3996 0.5C32.7512 0.5 33.1028 0.675781 33.3957 0.910156C33.6301 1.20312 33.8059 1.55469 33.8059 1.90625V21.5938C33.8059 22.0039 33.6301 22.3555 33.3957 22.5898C33.1028 22.8828 32.7512 23 32.3996 23H2.86838C2.04807 23 1.40354 22.7656 0.876196 22.1797C0.290258 21.6523 0.0558834 21.0078 0.0558834 20.1875V3.78125C0.0558834 3.42969 0.173071 3.07812 0.46604 2.78516C0.700415 2.55078 1.05198 2.375 1.46213 2.375H3.80588V1.90625C3.80588 1.55469 3.92307 1.20312 4.21604 0.910156C4.45041 0.675781 4.80198 0.5 5.21213 0.5H32.3996ZM1.93088 20.1875C1.93088 20.4805 1.98948 20.7148 2.16526 20.8906C2.34104 21.0664 2.57541 21.125 2.86838 21.125C3.10276 21.125 3.33713 21.0664 3.51291 20.8906C3.6887 20.7148 3.80588 20.4805 3.80588 20.1875V4.25H1.93088V20.1875ZM31.9309 21.125V2.375H5.68088V20.1875C5.68088 20.5391 5.62229 20.832 5.5051 21.125H31.9309ZM8.25901 15.5C8.02463 15.5 7.84885 15.4414 7.73166 15.3242C7.61448 15.207 7.55588 15.0312 7.55588 14.7969V4.95312C7.55588 4.77734 7.61448 4.60156 7.73166 4.48438C7.84885 4.36719 8.02463 4.25 8.25901 4.25H18.1028C18.2785 4.25 18.4543 4.36719 18.5715 4.48438C18.6887 4.60156 18.8059 4.77734 18.8059 4.95312V14.7969C18.8059 15.0312 18.6887 15.207 18.5715 15.3242C18.4543 15.4414 18.2785 15.5 18.1028 15.5H8.25901ZM9.43088 6.125V13.625H16.9309V6.125H9.43088ZM7.55588 18.5469C7.55588 18.7812 7.61448 18.957 7.73166 19.0742C7.84885 19.1914 8.02463 19.25 8.25901 19.25H18.1028C18.2785 19.25 18.4543 19.1914 18.5715 19.0742C18.6887 18.957 18.8059 18.7812 18.8059 18.5469V18.0781C18.8059 17.9023 18.6887 17.7266 18.5715 17.6094C18.4543 17.4922 18.2785 17.375 18.1028 17.375H8.25901C8.02463 17.375 7.84885 17.4922 7.73166 17.6094C7.61448 17.7266 7.55588 17.9023 7.55588 18.0781V18.5469ZM20.6809 18.5469C20.6809 18.7812 20.7395 18.957 20.8567 19.0742C20.9739 19.1914 21.1496 19.25 21.384 19.25H29.3528C29.5285 19.25 29.7043 19.1914 29.8215 19.0742C29.9387 18.957 30.0559 18.7812 30.0559 18.5469V18.0781C30.0559 17.9023 29.9387 17.7266 29.8215 17.6094C29.7043 17.4922 29.5285 17.375 29.3528 17.375H21.384C21.1496 17.375 20.9739 17.4922 20.8567 17.6094C20.7395 17.7266 20.6809 17.9023 20.6809 18.0781V18.5469ZM20.6809 14.7969C20.6809 15.0312 20.7395 15.207 20.8567 15.3242C20.9739 15.4414 21.1496 15.5 21.384 15.5H29.3528C29.5285 15.5 29.7043 15.4414 29.8215 15.3242C29.9387 15.207 30.0559 15.0312 30.0559 14.7969V14.3281C30.0559 14.1523 29.9387 13.9766 29.8215 13.8594C29.7043 13.7422 29.5285 13.625 29.3528 13.625H21.384C21.1496 13.625 20.9739 13.7422 20.8567 13.8594C20.7395 13.9766 20.6809 14.1523 20.6809 14.3281V14.7969ZM20.6809 7.29688C20.6809 7.53125 20.7395 7.70703 20.8567 7.82422C20.9739 7.94141 21.1496 8 21.384 8H29.3528C29.5285 8 29.7043 7.94141 29.8215 7.82422C29.9387 7.70703 30.0559 7.53125 30.0559 7.29688V6.82812C30.0559 6.65234 29.9387 6.47656 29.8215 6.35938C29.7043 6.24219 29.5285 6.125 29.3528 6.125H21.384C21.1496 6.125 20.9739 6.24219 20.8567 6.35938C20.7395 6.47656 20.6809 6.65234 20.6809 6.82812V7.29688ZM20.6809 11.0469C20.6809 11.2812 20.7395 11.457 20.8567 11.5742C20.9739 11.6914 21.1496 11.75 21.384 11.75H29.3528C29.5285 11.75 29.7043 11.6914 29.8215 11.5742C29.9387 11.457 30.0559 11.2812 30.0559 11.0469V10.5781C30.0559 10.4023 29.9387 10.2266 29.8215 10.1094C29.7043 9.99219 29.5285 9.875 29.3528 9.875H21.384C21.1496 9.875 20.9739 9.99219 20.8567 10.1094C20.7395 10.2266 20.6809 10.4023 20.6809 10.5781V11.0469Z" fill="#C51F21"/>
</svg>
