<svg width="38" height="31" viewBox="0 0 38 31" fill="none" xmlns="http://www.w3.org/2000/svg">
<path d="M6.8125 21.375C5.99219 21.375 5.34766 21.1406 4.82031 20.5547C4.23438 20.0273 4 19.3828 4 18.5625V3.5625C4 2.80078 4.23438 2.15625 4.82031 1.57031C5.34766 1.04297 5.99219 0.75 6.8125 0.75H31.1875C31.9492 0.75 32.5938 1.04297 33.1797 1.57031C33.707 2.15625 34 2.80078 34 3.5625V18.5625C34 19.3828 33.707 20.0273 33.1797 20.5547C32.5938 21.1406 31.9492 21.375 31.1875 21.375H6.8125ZM5.875 3.5625V18.5625C5.875 18.8555 5.93359 19.0898 6.10938 19.2656C6.28516 19.4414 6.51953 19.5 6.8125 19.5H31.1875C31.4219 19.5 31.6562 19.4414 31.832 19.2656C32.0078 19.0898 32.125 18.8555 32.125 18.5625V3.5625C32.125 3.32812 32.0078 3.09375 31.832 2.91797C31.6562 2.74219 31.4219 2.625 31.1875 2.625H6.8125C6.51953 2.625 6.28516 2.74219 6.10938 2.91797C5.93359 3.09375 5.875 3.32812 5.875 3.5625ZM37.0469 23.25C37.2227 23.25 37.3984 23.3672 37.5156 23.4844C37.6328 23.6016 37.75 23.7773 37.75 23.9531V27.9375C37.75 28.7578 37.457 29.4023 36.9297 29.9297C36.3438 30.5156 35.6992 30.75 34.9375 30.75H3.0625C2.24219 30.75 1.59766 30.5156 1.07031 29.9297C0.484375 29.4023 0.25 28.7578 0.25 27.9375V23.9531C0.25 23.7773 0.308594 23.6016 0.425781 23.4844C0.542969 23.3672 0.71875 23.25 0.953125 23.25H16.3047C16.3633 23.25 16.4219 23.3086 16.5391 23.3672C16.5977 23.4844 16.6562 23.543 16.6562 23.6016V24.1875C16.6562 24.5977 16.7734 24.9492 17.0664 25.1836C17.3008 25.4766 17.6523 25.5938 18.0625 25.5938H19.9375C20.2891 25.5938 20.6406 25.4766 20.9336 25.1836C21.168 24.9492 21.3438 24.5977 21.3438 24.1875V23.6016C21.3438 23.543 21.3438 23.4844 21.4609 23.3672C21.5195 23.3086 21.5781 23.25 21.6953 23.25H37.0469ZM35.875 27.9375V25.125H22.75C22.75 25.6523 22.5156 26.1211 22.1641 26.4727C21.8125 26.8242 21.3438 27 20.875 27H17.125C16.5977 27 16.1289 26.8242 15.7773 26.4727C15.4258 26.1211 15.25 25.6523 15.25 25.125H2.125V27.9375C2.125 28.2305 2.18359 28.4648 2.35938 28.6406C2.53516 28.8164 2.76953 28.875 3.0625 28.875H34.9375C35.1719 28.875 35.4062 28.8164 35.582 28.6406C35.7578 28.4648 35.875 28.2305 35.875 27.9375Z" fill="#C51F21"/>
</svg>
