<?xml version="1.0" encoding="UTF-8" standalone="no"?>
<svg
   width="48"
   height="56"
   viewBox="0 0 48 56"
   fill="none"
   version="1.1"
   id="svg1"
   sodipodi:docname="url.svg"
   inkscape:version="1.3.2 (091e20e, 2023-11-25, custom)"
   xml:space="preserve"
   xmlns:inkscape="http://www.inkscape.org/namespaces/inkscape"
   xmlns:sodipodi="http://sodipodi.sourceforge.net/DTD/sodipodi-0.dtd"
   xmlns="http://www.w3.org/2000/svg"
   xmlns:svg="http://www.w3.org/2000/svg"><defs
     id="defs1" /><sodipodi:namedview
     id="namedview1"
     pagecolor="#ffffff"
     bordercolor="#000000"
     borderopacity="0.25"
     inkscape:showpageshadow="2"
     inkscape:pageopacity="0.0"
     inkscape:pagecheckerboard="0"
     inkscape:deskcolor="#d1d1d1"
     inkscape:zoom="9.6801293"
     inkscape:cx="30.216539"
     inkscape:cy="24.948014"
     inkscape:window-width="1920"
     inkscape:window-height="1001"
     inkscape:window-x="-9"
     inkscape:window-y="-9"
     inkscape:window-maximized="1"
     inkscape:current-layer="svg1" /><g
     id="doc-excel"
     style="fill:#000000"><path
       id="Shape"
       fill-rule="evenodd"
       clip-rule="evenodd"
       d="M47.0778 14.486L33.5258 0.937988C33.1428 0.554988 32.7758 0.424988 32.0708 0.424988H3.93876C1.89976 0.424988 0.176758 2.14799 0.176758 4.18699V51.812C0.176758 53.851 1.89976 55.575 3.93876 55.575H44.0598C46.0988 55.575 47.8218 53.851 47.8218 51.812V16.401C47.8218 15.812 47.5318 15.062 47.0778 14.486ZM2.09976 4.07499C2.09976 3.09499 2.95876 2.23499 3.93976 2.23499H30.8798V13.712C30.8798 15.632 32.3858 17.137 34.3088 17.137H45.7858L45.7728 52.436C45.5288 53.143 44.8088 53.655 44.0568 53.655H3.93876C2.95876 53.655 2.09876 52.795 2.09876 51.814V4.07499H2.09976ZM32.9178 3.12799V13.824C32.9178 14.57 33.4348 15.326 34.4208 15.326H45.1138L32.9178 3.12799Z"
       fill="#C51F21"
       style="fill:#000000" /></g><path
     style="fill:#000000;stroke-width:0.999999"
     d="m 16.25509,49.574219 c -2.405146,-0.411933 -4.375782,-1.848459 -5.460537,-3.980563 -0.528926,-1.039613 -0.78133,-1.992815 -0.838167,-3.165342 -0.091383,-1.885137 0.503519,-3.730999 1.66665,-5.171321 0.372535,-0.461315 4.906323,-5.110643 4.992011,-5.119226 0.03904,-0.0036 0.03372,0.150071 -0.01641,0.474884 -0.05166,0.334883 -0.06672,0.822236 -0.04977,1.606829 0.02479,1.140286 0.08908,1.650521 0.309233,2.452958 0.190508,0.694434 0.262907,0.567297 -1.148346,2.016455 -1.333156,1.36895 -1.584749,1.700569 -1.818941,2.397392 -0.169692,0.504935 -0.207324,1.387487 -0.08303,1.946347 0.230514,1.036114 0.979457,1.996304 1.900943,2.437108 0.912531,0.436528 1.85184,0.507277 2.778274,0.20927 0.81972,-0.263683 1.031219,-0.444869 3.684802,-3.156632 1.335671,-1.364947 2.596411,-2.692477 2.801652,-2.950048 0.718011,-0.901082 0.965104,-1.52041 0.963067,-2.413855 -0.0027,-1.310139 -0.624975,-2.404668 -1.78368,-3.138809 -0.299305,-0.189634 -0.312018,-0.331582 -0.06934,-0.774135 0.37972,-0.692531 0.892768,-1.318893 1.553239,-1.896289 0.496008,-0.433617 0.609863,-0.455968 0.99098,-0.194512 0.390656,0.268002 1.246549,1.117791 1.605981,1.594531 1.714517,2.274107 2.002615,5.416946 0.731842,7.983776 -0.492881,0.995577 -1.210079,1.813107 -4.387972,5.001828 -2.450424,2.458773 -2.731598,2.698464 -3.727302,3.177379 -0.553432,0.266188 -1.447192,0.549941 -2.064223,0.655349 -0.62143,0.106157 -1.929901,0.109585 -2.531036,0.0063 z m 5.108173,-9.402079 c -0.443608,-0.294338 -1.472798,-1.354858 -1.805101,-1.860045 -1.493778,-2.270933 -1.726753,-5.173196 -0.609412,-7.591677 0.394703,-0.854351 0.874311,-1.498825 1.891528,-2.541766 4.672572,-4.790734 4.841279,-4.952969 5.675201,-5.457084 1.216074,-0.735131 2.487335,-1.08141 3.971681,-1.081842 0.887575,-2.71e-4 1.57257,0.104586 2.338969,0.358025 1.166306,0.38569 2.12179,0.972931 2.989556,1.837398 1.3772,1.371943 2.135765,3.083845 2.228062,5.028227 0.08601,1.812566 -0.444094,3.537758 -1.529941,4.978775 -0.298296,0.395875 -1.83279,1.993445 -4.372608,4.552342 l -0.845136,0.851483 0.03218,-0.247201 c 0.22817,-1.753034 0.162479,-3.071035 -0.221243,-4.439147 -0.09599,-0.342221 -0.127488,-0.544388 -0.09526,-0.611269 0.02651,-0.055 0.573068,-0.641383 1.214604,-1.303151 0.641537,-0.661769 1.240437,-1.303855 1.330903,-1.42686 0.23576,-0.320594 0.471818,-0.817899 0.583716,-1.229752 0.127653,-0.469844 0.130063,-1.333392 0.0054,-1.8119 -0.343692,-1.31553 -1.406809,-2.363545 -2.707075,-2.66862 -0.526446,-0.123507 -1.456208,-0.08412 -1.94465,0.08231 -0.747152,0.25464 -0.994525,0.453795 -2.651916,2.134989 -3.759715,3.813713 -4.166086,4.261197 -4.512357,4.968937 -0.44036,0.900082 -0.388636,2.186833 0.126799,3.153866 0.302885,0.568272 0.721021,1.003935 1.457759,1.518868 0.207792,0.145226 0.17785,0.318907 -0.134867,0.78234 -0.564026,0.835851 -1.817823,2.222751 -2.009423,2.222751 -0.05806,0 -0.241242,-0.08998 -0.407011,-0.199993 z"
     id="path1" /></svg>
